<?xml version="1.0" encoding="UTF-8"?>
<svg id="Logo" xmlns="http://www.w3.org/2000/svg" xmlns:xlink="http://www.w3.org/1999/xlink" viewBox="0 0 600 600">
  <defs>
    <style>
      .cls-1 {
        fill: #828282;
      }

      .cls-2 {
        fill: url(#linear-gradient);
      }
    </style>
    <linearGradient id="linear-gradient" x1="302.9" y1="78.8" x2="302.9" y2="459.4" gradientUnits="userSpaceOnUse">
      <stop offset="0" stop-color="#5a5a5a"/>
      <stop offset="1" stop-color="#333"/>
    </linearGradient>
  </defs>
  <path class="cls-1" d="M300,521.26c-58.95,0-114.37-22.96-156.06-64.64-41.68-41.69-64.64-97.11-64.64-156.06s22.96-114.37,64.64-156.06c41.69-41.68,97.11-64.64,156.06-64.64s114.37,22.96,156.06,64.64,64.64,97.11,64.64,156.06-22.96,114.37-64.64,156.06c-41.68,41.68-97.11,64.64-156.06,64.64ZM300,157.44c-78.61,0-142.56,63.95-142.56,142.56s63.95,142.56,142.56,142.56,142.56-63.95,142.56-142.56-63.95-142.56-142.56-142.56Z"/>
  <path class="cls-2" d="M442.66,459.4c-4.24,0-8.46-1.04-12.22-3.01l-1.33-.7c-12.32-6.45-21.14-17.92-24.19-31.48-3.09-13.72.03-28.04,8.54-39.31,19.82-26.22,29.69-57.53,28.54-90.55-.29-8.45-1.36-16.93-3.17-25.21l-.05-.24-66.29,30.91v.12c-.38,7.4-1.87,14.7-4.43,21.71-10.6,28.93-38.52,48.37-69.47,48.37-8.09,0-16.08-1.34-23.75-3.98-19.34-6.65-35.18-21.18-43.47-39.86-8.43-19-8.53-40.02-.28-59.19,11.63-27.02,38.26-44.47,67.84-44.47,6.89,0,13.74.98,20.37,2.9,10.63,3.09,20.2,8.36,28.43,15.67l.1.09,63.58-29.65-.16-.2c-26.98-33.87-67.08-53.48-110.04-53.78h-1.02c-60.28,0-114.13,38.21-133.99,95.09-6.6,18.9-24.65,31.6-44.92,31.6-5.16,0-10.27-.83-15.2-2.47l-2.68-.89c-13.58-4.52-21.6-18.93-18.26-32.8,11.41-47.44,38.82-90.43,77.18-121.05,39.52-31.55,87.19-48.22,137.87-48.22,16.01,0,32.25,1.72,48.3,5.11,84.84,17.94,150.85,84.53,168.16,169.63,14.76,72.59-5.33,144.66-55.12,197.73-4.84,5.16-11.73,8.12-18.88,8.12h0Z"/>
  <path id="Rect" class="cls-1" d="M251.28,231.18h0c17.66,0,32,14.34,32,32v148h-64v-148c0-17.66,14.34-32,32-32Z" transform="translate(436.18 -42.3) rotate(65)"/>
</svg>