<?xml version="1.0" encoding="UTF-8" standalone="no"?>
<svg
   version="1.1"
   width="810"
   height="823"
   id="svg6"
   sodipodi:docname="kettu.svg"
   inkscape:version="1.4.2 (f4327f4, 2025-05-13)"
   xmlns:inkscape="http://www.inkscape.org/namespaces/inkscape"
   xmlns:sodipodi="http://sodipodi.sourceforge.net/DTD/sodipodi-0.dtd"
   xmlns="http://www.w3.org/2000/svg"
   xmlns:svg="http://www.w3.org/2000/svg">
  <defs
     id="defs6" />
  <sodipodi:namedview
     id="namedview6"
     pagecolor="#505050"
     bordercolor="#eeeeee"
     borderopacity="1"
     inkscape:showpageshadow="0"
     inkscape:pageopacity="0"
     inkscape:pagecheckerboard="0"
     inkscape:deskcolor="#505050"
     inkscape:zoom="1.15"
     inkscape:cx="405.65217"
     inkscape:cy="444.78261"
     inkscape:window-width="2560"
     inkscape:window-height="1369"
     inkscape:window-x="-8"
     inkscape:window-y="-8"
     inkscape:window-maximized="1"
     inkscape:current-layer="svg6" />
  <path
     d="M0 0 C12.02703397 0.59149347 26.28570633 2.95096562 35.98828125 10.48046875 C38.27680556 12.20908226 40.63581266 13.44285858 43.1875 14.75 C49.67402625 18.21129762 55.47608788 22.49378977 61.39111328 26.83203125 C63.56497401 28.41014199 65.78193305 29.92236724 68 31.4375 C76.87722682 37.648629 85.51076172 44.17968485 93.00390625 52.02734375 C97.56997009 56.53979431 102.73553806 60.44830267 107.7890625 64.3984375 C110.48200661 66.54415233 112.73721231 68.81045626 114.9375 71.4375 C118.47394183 75.62268508 122.45090137 79.20169235 126.5 82.875 C132.25758381 88.14394309 136.82246741 93.38202108 141 100 C148.17720654 110.19222158 155.57646173 119.75700899 164.50024414 128.46191406 C168.62222483 132.51947864 172.23939684 136.8595665 175.83203125 141.39453125 C178.68183575 144.81943143 181.81522347 147.87599918 185.0546875 150.9296875 C187.52627346 153.56009023 190 156.26181813 190 160 C190.55171875 160.2165625 191.1034375 160.433125 191.671875 160.65625 C194.7593585 162.43828746 196.90381239 164.86875389 199.25 167.5 C199.97896484 168.29543213 199.97896484 168.29543213 200.72265625 169.10693359 C204.39449138 173.16266441 207.58672692 177.4414931 210.5625 182.0390625 C214.51685002 185.2202864 219.07318466 185.31026151 224 186 C225.99789648 186.34921381 227.99401478 186.70874458 229.98828125 187.078125 C231.01244141 187.26576416 232.03660156 187.45340332 233.09179688 187.64672852 C261.01900987 192.8777885 287.29623188 200.70144494 311 217 C311.89332031 217.59296875 312.78664063 218.1859375 313.70703125 218.796875 C320.47983984 223.38654439 326.59631819 228.46247493 332.25 234.375 C335.24101923 237.4344636 338.48549203 239.91237999 341.9375 242.4375 C350.35554358 248.65680086 356.43202164 255.38086292 362.59765625 263.8125 C365.03372358 267.04474543 367.60600081 270.12647671 370.25 273.1875 C374.51205622 278.14145335 378.54783646 283.23323509 382.5 288.4375 C383.32322754 289.5203125 383.32322754 289.5203125 384.16308594 290.625 C386.25610216 293.38099057 388.34704018 296.13855437 390.4375 298.89648438 C404.87754704 317.86955754 421.07193683 334.34888486 440.93017578 347.61523438 C442.90647087 348.9374266 444.87414275 350.27150053 446.83984375 351.609375 C459.31646859 360.06849075 471.98089011 367.63588023 485.52612305 374.26733398 C490.79882802 376.85874722 495.92305414 379.60821764 501 382.5625 C509.32532236 387.38068579 518.06062877 391.17513643 526.85644531 395.04248047 C530.97882629 396.88393584 534.98846081 398.93198238 539 401 C540.2663539 401.63395876 541.53334995 402.26663547 542.80078125 402.8984375 C545.43737605 404.21367975 548.06507452 405.54368546 550.68359375 406.89453125 C558.50358254 410.90064763 566.33796498 414.52841899 574.59155273 417.56567383 C579.63676143 419.51249561 579.63676143 419.51249561 581.484375 421.9921875 C582.62954321 426.4514031 581.51570479 430.08319149 579.3125 434 C577.67065451 436.12996172 576.02757971 438.11977384 574.25 440.125 C571.59861394 443.13343057 569.46756214 446.30726962 567.3125 449.6875 C562.85797913 456.48426416 557.68521665 462.23055792 552 468 C551.36707031 468.64582031 550.73414063 469.29164063 550.08203125 469.95703125 C545.82260053 473.97199133 540.99039374 477.06598891 536.0625 480.1875 C535.40612549 480.60402832 534.74975098 481.02055664 534.07348633 481.44970703 C525.83415371 486.52993312 517.15450381 489.71419363 508 492.75 C500.83943502 495.16637642 494.00160649 497.79352339 487.25 501.1875 C465.92060341 511.67736717 436.9818995 516.58187794 413.30737305 517.23999023 C405.24230291 517.48041238 397.589456 518.31406198 389.6875 519.9375 C376.64051144 522.59197368 363.51496838 523.10239432 350.25146484 523.79541016 C347.57076853 523.9640859 344.93384873 524.2060312 342.26953125 524.53515625 C338.15747761 525.03800058 334.08466552 525.11797008 329.9453125 525.18823242 C305.05088703 525.7103055 273.39736035 530.31443035 255 549 C253.28375277 550.96338683 251.6466367 552.97698919 250 555 C249.34 555.33 248.68 555.66 248 556 C248.99 556.66 249.98 557.32 251 558 C251 558.66 251 559.32 251 560 C250.43152344 560.23332031 249.86304688 560.46664062 249.27734375 560.70703125 C239.9772842 565.10088242 236.30368133 572.76912714 232.4375 581.9375 C230.41683477 586.53648159 228.77510688 588.94014997 224 591 C216.77132845 592.25075293 209.56622045 592.14096754 202.24707031 592.12939453 C200.86636306 592.13075164 199.48565617 592.13253332 198.10494995 592.13470459 C194.37332291 592.13924374 190.64172367 592.13750343 186.91009617 592.1343255 C182.98927807 592.13178164 179.06846224 592.13414526 175.14764404 592.13571167 C168.56066463 592.13752832 161.97369645 592.13514118 155.38671875 592.13037109 C147.79780399 592.12493849 140.20891613 592.12668587 132.62000203 592.1321975 C126.08212533 592.13675383 119.54425667 592.13736662 113.00637889 592.13475883 C109.11160133 592.13320871 105.21683636 592.13296712 101.32205963 592.13629532 C97.65467717 592.13921046 93.98732892 592.13713226 90.3199501 592.13140106 C88.35186051 592.12947418 86.38376798 592.13239682 84.41567993 592.13552856 C77.77498118 592.11992057 71.23561368 591.87032463 64.62510204 591.22373772 C60.35485547 590.85978416 56.09874458 590.89524911 51.81640625 590.9375 C50.9130101 590.94128662 50.00961395 590.94507324 49.07884216 590.94897461 C46.24000864 590.96102134 43.40128542 590.97966243 40.5625 591 C36.79297163 591.02665547 33.02349349 591.04658162 29.25390625 591.0625 C28.3986586 591.07079834 27.54341095 591.07909668 26.6622467 591.08764648 C22.6089328 591.10434596 18.9687074 590.90924896 15 590 C11.62723491 589.7856446 8.25401825 589.81016783 4.875 589.8125 C3.89797119 589.81185547 2.92094238 589.81121094 1.91430664 589.81054688 C-4.30890764 589.85493715 -10.38818023 590.24361306 -16.5625 591 C-25.71249134 592.10036369 -34.70276678 592.25565306 -43.91113281 592.06201172 C-46.14467825 592.01717133 -48.37846365 591.98378936 -50.61230469 591.95751953 C-54.49222191 591.90977125 -58.37069321 591.83318725 -62.25 591.75 C-63.4757373 591.73606201 -64.70147461 591.72212402 -65.96435547 591.70776367 C-73.80928368 591.49041828 -81.26115209 590.92729791 -86.9375 584.96484375 C-87.288125 584.29582031 -87.63875 583.62679687 -88 582.9375 C-88.37125 582.26589844 -88.7425 581.59429688 -89.125 580.90234375 C-91.6193228 575.47941874 -91.36509392 570.06124677 -91.5625 564.1875 C-91.6035083 562.97006104 -91.6445166 561.75262207 -91.68676758 560.49829102 C-93.07917818 514.20856615 -93.07917818 514.20856615 -90.57421875 495.59375 C-89.60702103 488.39477753 -89.21444765 481.1317795 -88.69775391 473.88964844 C-88.30766158 468.55266204 -87.85297252 463.28390057 -87 458 C-86.34 458 -85.68 458 -85 458 C-84.97421875 457.29359375 -84.9484375 456.5871875 -84.921875 455.859375 C-84.38049244 446.06527231 -82.4669321 436.71132715 -80.43481445 427.13500977 C-80.07510999 425.36880227 -79.77042646 423.59148868 -79.48046875 421.8125 C-78.44977889 415.77919349 -76.63154527 409.8949724 -75 404 C-74.76055664 403.13133301 -74.52111328 402.26266602 -74.27441406 401.36767578 C-73.50197979 398.57658049 -72.72106531 395.78798931 -71.9375 393 C-71.69233643 392.11626709 -71.44717285 391.23253418 -71.19458008 390.32202148 C-70.10684912 386.48821565 -68.98263405 382.79473369 -67.34765625 379.15625 C-66.15115909 376.35401896 -65.63390644 374.49057715 -65.5 371.5 C-65.14746101 367.12701638 -63.92270429 363.92900443 -62 360 C-61.34 360 -60.68 360 -60 360 C-60 359.34 -60 358.68 -60 358 C-59.34 358 -58.68 358 -58 358 C-57.86722656 357.30132812 -57.73445313 356.60265625 -57.59765625 355.8828125 C-57.33275391 354.51769531 -57.33275391 354.51769531 -57.0625 353.125 C-56.88847656 352.22007812 -56.71445313 351.31515625 -56.53515625 350.3828125 C-56 348 -56 348 -55 346 C-54.34 346 -53.68 346 -53 346 C-52.649375 344.80375 -52.29875 343.6075 -51.9375 342.375 C-46.36567875 325.78911349 -36.0377212 310.86416419 -26.34002686 296.46182251 C-25.57597888 295.32699905 -24.8137891 294.19092214 -24.05352783 293.05355835 C-22.97401708 291.44222066 -21.88366045 289.83816559 -20.79296875 288.234375 C-20.1589917 287.29819336 -19.52501465 286.36201172 -18.87182617 285.39746094 C-17.07635216 283.09779291 -15.35010811 281.68596762 -13 280 C-11.80511261 277.78705637 -11.80511261 277.78705637 -12 275 C-12.88171875 273.36998047 -12.88171875 273.36998047 -13.78125 271.70703125 C-16.85028858 265.77360168 -18.04077625 259.35155471 -19.5 252.875 C-21.19535541 245.48975315 -22.9158653 238.15791394 -25.08203125 230.89453125 C-27.01772133 224.25734597 -28.20387246 217.64808883 -29.1875 210.8125 C-29.51221262 208.63119523 -29.83893854 206.45018893 -30.16796875 204.26953125 C-30.30485107 203.32698486 -30.4417334 202.38443848 -30.58276367 201.41333008 C-30.96070747 198.86790002 -30.96070747 198.86790002 -32 196 C-32.05804073 192.77148464 -32.02265027 189.55960928 -31.9609375 186.33203125 C-31.91989808 182.72740211 -32.04785171 179.26128876 -32.5078125 175.68359375 C-33.15306967 170.33094442 -33.07081784 165.0686258 -32.875 159.6875 C-32.83568359 158.59993408 -32.79636719 157.51236816 -32.75585938 156.3918457 C-32.35450787 148.30657352 -31.11348346 140.60942991 -29.5 132.6875 C-27.30040503 121.82871113 -26.68376319 111.52083607 -26.625 100.5 C-26.52979869 87.60811209 -25.30313589 75.34193961 -22.8125 62.6875 C-22.67201233 61.95176758 -22.53152466 61.21603516 -22.38677979 60.45800781 C-20.61466886 51.33798842 -18.07000792 42.96375566 -14.41040039 34.42089844 C-12.93069387 30.83189933 -11.76434879 27.27207957 -10.625 23.5625 C-7.94370816 15.26368197 -4.07355861 7.69225335 0 0 Z M241 314 C238.67082562 317.19183155 236.7679827 320.46971943 235 324 C234.50693359 324.96873047 234.50693359 324.96873047 234.00390625 325.95703125 C229.38382441 336.45721724 230.52976969 348.36216673 234 359 C235.66157969 362.62937195 237.63113612 365.79309466 240 369 C240.78890625 370.07894531 240.78890625 370.07894531 241.59375 371.1796875 C248.20667994 379.44584992 258.53078643 385.31902768 269 387 C284.42367884 388.03049771 296.01651151 385.20006605 308.12109375 375.2578125 C316.21782393 367.88045154 321.30162586 357.36541098 322.3359375 346.45703125 C322.49095487 331.99391074 318.7704891 321.51560449 309.00390625 310.8125 C298.96659671 301.08828085 287.26824757 297.65696005 273.63671875 297.78515625 C260.68508541 298.55029034 249.74741142 304.56070293 241 314 Z "
     fill="#FDFDFD"
     transform="translate(193,86)"
     id="path1" />
  <path
     d="M0 0 C0.66 0.33 1.32 0.66 2 1 C1.34 9.25 0.68 17.5 0 26 C-0.66 26 -1.32 26 -2 26 C-2.38064163 17.20294908 -1.20731692 8.68836995 0 0 Z "
     fill="#696969"
     transform="translate(106,544)"
     id="path2" />
  <path
     d="M0 0 C1.65 0.33 3.3 0.66 5 1 C5 1.66 5 2.32 5 3 C3.54195831 3.81302325 2.08355685 4.62540131 0.625 5.4375 C-0.59316406 6.11619141 -0.59316406 6.11619141 -1.8359375 6.80859375 C-3.20996622 7.5650536 -4.59709261 8.29854631 -6 9 C-4.47291037 5.56404834 -2.40072955 2.88087546 0 0 Z "
     fill="#010102"
     transform="translate(439,643)"
     id="path3" />
  <path
     d="M0 0 C0.99 0.495 0.99 0.495 2 1 C2.4140625 3.06640625 2.4140625 3.06640625 2.625 5.5625 C2.69976562 6.38878906 2.77453125 7.21507812 2.8515625 8.06640625 C2.92503906 9.02353516 2.92503906 9.02353516 3 10 C2.01 10.495 2.01 10.495 1 11 C-0.28317892 7.15046324 -0.06643637 4.05261865 0 0 Z "
     fill="#414244"
     transform="translate(161,274)"
     id="path4" />
  <path
     d="M0 0 C0.66 0 1.32 0 2 0 C1.38461538 5.53846154 1.38461538 5.53846154 -0.5625 7.875 C-1.036875 8.24625 -1.51125 8.6175 -2 9 C-2.33 8.34 -2.66 7.68 -3 7 C-2.06421005 4.64018187 -1.06652192 2.30368736 0 0 Z "
     fill="#000000"
     transform="translate(131,446)"
     id="path5" />
  <path
     d="M0 0 C0.66 0 1.32 0 2 0 C1.67 0.99 1.34 1.98 1 3 C0.34 3 -0.32 3 -1 3 C-0.67 2.01 -0.34 1.02 0 0 Z "
     fill="#000000"
     transform="translate(176,365)"
     id="path6" />
  <path
     style="fill:#ffffff"
     id="path7"
     d="m 115.24276,615.20852 c -0.90591,-4.54498 -0.83316,-9.22979 -0.52881,-13.83333 0.26467,-2.83773 0.69895,-5.65708 0.89954,-8.50066 0.0914,-2.66102 0.39357,-5.3077 0.59479,-7.9611 0.21919,-3.59948 0.33848,-7.20398 0.60541,-10.80142 0.43731,-3.52887 0.0821,-7.07576 -0.0784,-10.60904 -0.0356,-2.58936 -0.26396,-5.16762 -0.32937,-7.75527 -0.0917,-2.65163 0.11737,-5.27526 0.67055,-7.86714 0.35115,-1.35685 0.61794,-2.72349 0.7484,-4.11822 0.53015,-2.34882 0.746,-4.74827 1.16532,-7.11583 0.37077,-2.89243 1.07832,-5.70587 1.85967,-8.51033 0.87617,-3.50826 1.76899,-7.01227 2.65837,-10.51716 0.7851,-2.80501 1.2585,-5.68216 1.80289,-8.54008 0.68882,-3.5037 1.50155,-6.98272 2.38748,-10.44151 0.55808,-2.25814 0.80003,-4.5731 1.2675,-6.84884 0.4091,-1.93137 0.8742,-3.84905 1.45932,-5.73474 1.04575,-3.26067 2.51063,-6.36311 4.07665,-9.40051 0.74731,-1.69571 1.54984,-3.37094 2.21865,-5.09997 0.81255,-2.86263 1.94642,-5.58165 3.19897,-8.27554 0.20741,-0.44163 0.42551,-0.8784 0.62224,-1.32489 0.49199,-1.11665 0.90302,-2.26793 1.3987,-3.38295 0.88622,-1.99355 1.86742,-3.9536 2.79396,-5.92906 1.66292,-3.55273 3.19444,-7.16326 4.59849,-10.82598 2.07444,-5.05306 4.15386,-10.10189 6.29822,-15.1259 1.78969,-3.84719 3.7138,-7.63203 5.58445,-11.4417 1.30113,-2.97074 2.81986,-5.84339 4.06235,-8.8384 1.72946,-4.52854 4.25529,-8.64415 6.85815,-12.70592 2.24406,-3.63943 4.27738,-7.41114 6.28543,-11.18557 1.88486,-3.55491 4.03929,-6.959 6.18374,-10.36116 1.40909,-2.18731 2.99096,-4.2534 4.50412,-6.36727 2.20538,-2.75439 4.17572,-5.67912 6.06478,-8.65567 0.25374,-0.37966 0.50748,-0.75933 0.76122,-1.139 0,0 -12.73909,-7.42092 -12.73909,-7.42092 v 0 c -0.23588,0.3972 -0.47175,0.79439 -0.70763,1.19158 -1.78063,3.01379 -3.80182,5.85619 -6.05668,8.53564 -1.54711,2.14492 -3.24914,4.18748 -4.60458,6.46426 -1.94342,3.54481 -3.97151,7.04025 -5.92439,10.57892 -2.01647,3.74847 -4.25585,7.36016 -6.3932,11.03827 -2.39155,4.23389 -4.89062,8.40861 -6.96242,12.81516 -1.54074,2.88567 -2.60734,5.89007 -3.9573,8.8639 -1.92848,3.81785 -3.9105,7.62001 -5.49438,11.59793 -2.09503,5.0413 -4.09787,10.12868 -6.51797,15.02566 -0.70426,1.64958 -1.28261,3.32729 -1.94219,4.99447 -1.01065,2.55455 -0.52316,1.29679 -1.6711,3.84752 -0.29337,0.65189 -0.57452,1.3092 -0.86178,1.9638 -1.65465,3.52832 -3.44774,6.99143 -4.96438,10.58303 -0.70466,1.64188 -1.49638,3.25492 -2.17306,4.90749 -0.45247,1.10501 -0.7783,2.26588 -1.32248,3.33516 -0.5543,1.71592 -1.28698,3.37137 -1.96631,5.03994 -1.49883,3.1423 -2.81035,6.37217 -4.11304,9.59888 -0.71273,1.89635 -1.40954,3.83197 -1.72833,5.83948 -0.37283,2.28462 -0.62458,4.5868 -1.11548,6.85185 -0.73736,3.52014 -1.52124,7.02984 -2.27252,10.54704 -0.61901,2.81728 -1.33328,5.61124 -1.87001,8.44614 -0.80467,3.50655 -1.6307,7.00861 -2.56957,10.4823 -0.48072,1.54512 -0.99155,3.09804 -1.36967,4.67286 -0.30389,1.26566 -0.26134,1.38313 -0.45727,2.64493 -0.0665,0.42837 -0.14395,0.85496 -0.21592,1.28244 -0.4126,2.37144 -0.62175,4.78852 -1.35168,7.09333 -0.22253,1.35663 -0.28862,2.73851 -0.61221,4.08105 -0.48514,2.70578 -0.84492,5.43423 -0.70078,8.19018 -0.013,2.61724 0.0758,5.2249 0.32923,7.83193 0.23791,3.49318 0.51408,7.00183 0.26575,10.5021 -0.21277,3.57206 -0.57086,7.12758 -0.78044,10.69734 -0.19639,2.65083 -0.39542,5.30131 -0.71924,7.93923 -0.0812,2.89986 -0.25327,5.79723 -0.53032,8.68522 -0.18705,4.63473 -0.20648,9.2788 -0.0727,13.91471 z" />
  <path
     style="fill:#ffffff"
     id="path8"
     d="m 191.0404,349.55068 c -1.06351,-2.01322 -2.05995,-4.05593 -3.00085,-6.12919 -0.6393,-1.44855 -1.4594,-2.81319 -2.06949,-4.27368 -0.50118,-1.4416 -1.04083,-2.86503 -1.39814,-4.35074 -0.6723,-2.40365 -1.09209,-4.86622 -1.54107,-7.31879 -0.31273,-1.85074 -0.63811,-3.69417 -0.80327,-5.56487 -0.0678,-1.81763 -0.16007,-3.62663 -0.47032,-5.42065 -0.19374,-1.11946 -0.45837,-2.23003 -0.81067,-3.31039 -0.75705,-1.86088 -1.1776,-3.82085 -1.57829,-5.78092 -0.40975,-2.27128 -1.34489,-4.36157 -2.29685,-6.44522 -1.07466,-2.31779 -2.02439,-4.68923 -2.96337,-7.06414 -0.57079,-1.37753 -0.98617,-2.80266 -1.26336,-4.2656 -0.22982,-1.49278 -0.22786,-3.00363 -0.27104,-4.50897 -0.13345,-1.26991 -0.28349,-2.53602 -0.37532,-3.81028 -0.1689,-2.63881 0.005,-5.2804 0.24181,-7.90859 0.31922,-3.15402 0.91766,-6.26523 1.47525,-9.38239 0.40246,-3.37129 0.86384,-6.73203 1.34805,-10.09266 0.72667,-4.73276 1.56933,-9.44668 2.79136,-14.07815 0.80492,-2.84346 1.63231,-5.67845 2.51376,-8.49888 0.46342,-1.51351 0.90661,-3.03096 1.4015,-4.53449 0,0 -12.91859,-7.07864 -12.91859,-7.07864 v 0 c -0.44082,1.51593 -0.83649,3.04539 -1.34984,4.53929 -0.96266,2.85013 -1.88786,5.70001 -2.42624,8.6691 -1.06915,4.69926 -2.00522,9.4287 -2.91176,14.16171 -0.53245,3.32185 -1.0267,6.64708 -1.49613,9.97811 -0.53789,3.16259 -0.91202,6.35183 -1.41133,9.52073 -0.34524,2.6528 -0.60623,5.31534 -0.53053,7.99436 -0.0117,1.29181 0.0127,2.58536 0.27945,3.85554 0.23443,1.52117 0.0321,3.07657 0.26352,4.60265 0.1713,1.5831 0.53564,3.1343 1.14959,4.60819 1.00481,2.40081 2.0441,4.78567 3.06968,7.17732 0.52486,1.16415 1.13523,2.36839 1.59158,3.55912 0.34909,0.91085 0.24993,0.93806 0.46634,1.84742 0.0579,0.24352 0.1376,0.48135 0.2064,0.72203 0.55824,1.92425 0.83078,3.92466 1.43034,5.84069 0.35234,1.04491 0.74062,2.08431 0.95411,3.17014 0.38753,1.75095 0.6319,3.51388 0.65421,5.31231 0.11658,1.9239 0.24885,3.83883 0.70601,5.71887 0.52022,2.42495 1.00524,4.85047 1.42252,7.29371 0.30746,1.5343 0.79807,3.00499 1.32815,4.47344 0.40135,1.64733 1.3854,3.01502 2.12187,4.52603 0.5825,1.13832 1.04444,2.31592 1.59146,3.4697 0.68075,1.43587 0.35028,0.5508 0.93416,1.84283 0.11378,0.25178 0.20965,0.51128 0.31447,0.76692 z" />
  <path
     style="fill:#ffffff"
     id="path9"
     d="m 413.23511,673.05348 c 1.69544,-0.46854 3.43629,-0.69556 5.14175,-1.11783 1.07603,-0.29068 2.16322,-0.5421 3.19198,-0.98096 1.44571,-0.51831 2.75663,-1.32333 4.15616,-1.93987 0.98332,-0.65639 2.09214,-1.08072 3.11478,-1.65569 0.9194,-0.48406 1.84617,-0.94668 2.78462,-1.39377 0.97952,-0.70825 1.82956,-1.59034 2.53635,-2.56825 0.60202,-0.8746 1.21364,-1.73414 1.68919,-2.68449 0.50057,-1.17931 1.22847,-2.12871 2.17342,-2.97996 1.36455,-1.10205 2.85425,-2.04791 4.18804,-3.18947 0.83984,-0.7188 1.48412,-1.40184 2.26052,-2.18602 1.03446,-1.09057 2.20458,-2.0715 3.13088,-3.26108 2.1161,-2.71759 -0.77149,0.85703 1.33606,-1.73086 0.80007,-1.11817 1.74835,-2.13191 2.52302,-3.26817 0.4419,-0.64817 0.84528,-1.32182 1.27536,-1.9779 1.17506,-1.63856 2.31004,-3.29356 3.36979,-5.00893 1.61588,-2.89814 3.14855,-5.84629 4.74706,-8.7566 1.97969,-3.93063 3.97261,-7.84697 6.19083,-11.64862 2.3104,-3.69511 4.23299,-7.61139 6.49393,-11.33451 0.63977,-0.976 1.21238,-1.98377 1.7243,-3.03075 0,0 -12.94739,-7.30527 -12.94739,-7.30527 v 0 c -0.42707,1.03595 -0.91327,2.04095 -1.46801,3.0162 -2.06082,3.83349 -3.99744,7.73803 -6.38603,11.3852 -1.0966,1.89743 -2.19423,3.78945 -3.18841,5.74352 -0.65351,1.2845 -1.25335,2.59585 -1.90723,3.88017 -0.35226,0.6919 -0.72346,1.37399 -1.08519,2.06098 -1.61791,2.86662 -3.35044,5.66238 -4.98602,8.51788 -1.09812,1.67218 -2.1953,3.34506 -3.31697,5.00127 -1.19439,1.74942 -2.4293,3.46222 -3.75704,5.11391 -1.3646,1.69425 -2.73855,3.38499 -4.2835,4.92104 -1.99405,1.96687 -4.24322,3.58578 -6.51257,5.2183 -0.29544,0.25102 -0.60876,0.48239 -0.88631,0.75305 -0.75434,0.7356 -1.18405,1.74192 -1.68834,2.64387 -0.46199,0.86734 -1.01584,1.67683 -1.57719,2.4827 -0.57818,0.78432 -1.2843,1.51126 -2.15899,1.95922 -0.93125,0.48469 -1.89602,0.90382 -2.80847,1.42549 -1.03178,0.51303 -2.02923,1.08863 -3.04796,1.62678 -1.32688,0.6908 -2.65598,1.37417 -4.09513,1.80929 -1.02036,0.31213 -2.05449,0.58061 -3.08392,0.86133 -1.70031,0.43348 -3.43667,0.71364 -5.14514,1.11352 z" />
  <path
     style="fill:#000000;stroke-width:0.431034"
     d="m 461.06203,472.60818 c -9.17021,-1.64859 -20.08004,-8.00613 -25.60272,-14.91961 -6.04553,-7.568 -8.57198,-12.55074 -10.05799,-19.83663 -1.45987,-7.15776 -1.45401,-14.37312 0.0164,-20.16961 1.76298,-6.94986 7.06287,-16.20927 11.72393,-20.4828 12.79521,-11.7314 27.33296,-15.57097 44.02516,-11.62752 16.26043,3.84146 29.14155,17.23176 32.82407,34.12157 1.02265,4.69039 1.32148,11.66331 0.67147,15.66801 -1.42302,8.76711 -5.3639,16.8629 -11.18935,22.98634 -6.59904,6.9366 -15.53478,11.83641 -24.84804,13.62513 -4.38811,0.84279 -14.39488,1.20466 -17.56292,0.63512 z"
     id="path10" />
  <path
     style="fill:#000000;stroke-width:0.431034"
     d="m 458.40517,471.78804 c -4.57703,-1.21341 -12.9263,-5.51636 -17.07465,-8.79973 -7.15277,-5.66134 -13.47026,-15.51182 -15.46525,-24.11406 -3.04606,-13.13437 -0.97882,-24.12528 6.69564,-35.59873 7.53547,-11.26564 22.39821,-19.00828 36.48824,-19.00828 4.03354,0 11.21057,1.14715 15.1088,2.41492 4.10839,1.33613 9.6232,4.2229 12.93364,6.77023 4.99101,3.84049 10.13295,10.06571 13.01547,15.75749 3.09622,6.11374 5.15014,16.49426 4.61678,23.33322 -0.75975,9.74184 -5.2898,19.34668 -12.51868,26.54272 -4.13964,4.12084 -7.54067,6.49527 -13.02414,9.09281 -6.44971,3.05526 -11.06926,4.04202 -19.99999,4.27211 -6.56191,0.16906 -7.96361,0.0829 -10.77586,-0.6627 z"
     id="path11" />
  <path
     style="fill:#000000;stroke-width:0.431034"
     d="m 457.54701,471.53363 c -4.93481,-1.5009 -12.09863,-5.29179 -16.34408,-8.64884 -5.4143,-4.28129 -10.91504,-11.75712 -13.60223,-18.48623 -2.8274,-7.08024 -3.84335,-18.66178 -2.22582,-25.37391 1.49605,-6.20807 5.13479,-13.51366 9.33743,-18.74699 2.73778,-3.4092 8.94187,-8.26288 13.77907,-10.77984 9.09092,-4.73031 17.48325,-6.10627 27.85263,-4.56657 17.74955,2.63556 31.29635,14.37875 36.5267,31.66358 3.79335,12.53595 1.891,25.34558 -5.37792,36.21273 -5.83951,8.73016 -15.7402,15.57776 -26.55428,18.36572 -3.51131,0.90524 -5.5087,1.11878 -11.97299,1.28 -7.40113,0.18458 -7.92726,0.1422 -11.41851,-0.91965 z"
     id="path12" />
  <rect
     style="fill:#000000"
     id="rect13"
     width="811.63794"
     height="11.637931"
     x="-0.86206895"
     y="812.5" />
  <rect
     style="fill:#000000"
     id="rect14"
     width="11.304348"
     height="812.17389"
     x="800"
     y="1.7391304" />
  <rect
     style="fill:#000000"
     id="rect15"
     width="19.130434"
     height="822.6087"
     x="-1.7391304"
     y="-2.6086957" />
  <rect
     style="fill:#000000"
     id="rect16"
     width="810.43475"
     height="26.086956"
     x="-2.6086957"
     y="-0.86956519" />
  <path
     style="fill:#000000;stroke-width:0.869565"
     d="M 17.826087,418.69565 V 25.652174 H 408.69565 799.56522 V 418.69565 811.73913 H 408.69565 17.826087 Z m 159.849493,258.5914 c 11.13565,-1.02068 18.36132,-1.22268 26.23746,-0.73352 17.368,1.07866 55.92542,1.53774 136.52174,1.62547 83.79908,0.0912 77.83932,0.51247 83.18261,-5.87963 1.35826,-1.62487 4.09318,-3.77304 6.07759,-4.77372 1.98441,-1.00068 4.45806,-3.19481 5.497,-4.87584 1.03893,-1.68104 4.02154,-4.87833 6.62802,-7.10511 5.7573,-4.91863 12.43953,-13.89195 17.72137,-23.79742 3.53728,-6.63374 4.36793,-7.58731 8.1834,-9.39449 13.09365,-6.20172 35.05186,-10.58789 53.09875,-10.60653 3.80076,-0.004 11.23554,-0.38668 16.52174,-0.85057 5.28619,-0.4639 15.461,-1.27287 22.61068,-1.79772 7.14969,-0.52487 17.3051,-1.7296 22.5676,-2.67719 5.26249,-0.9476 17.60399,-2.28855 27.42555,-2.97988 32.29522,-2.27327 49.19756,-6.185 72.93555,-16.87957 5.1091,-2.30178 13.98493,-5.84023 19.72406,-7.86322 14.59538,-5.14474 20.38433,-7.90628 30.01811,-14.31974 9.64274,-6.41943 20.58001,-17.41452 27.75428,-27.901 2.6009,-3.80168 6.4097,-8.90334 8.464,-11.33703 4.45005,-5.2719 6.3723,-9.52771 6.3723,-14.10807 0,-4.36553 -1.29351,-5.46721 -10.90619,-9.28873 -4.28421,-1.70318 -15.61555,-6.97909 -25.18077,-11.72422 -9.56521,-4.74514 -22.2826,-10.92713 -28.26086,-13.73775 -30.56627,-14.37049 -67.84946,-36.08442 -87.03794,-50.69137 -14.09307,-10.72815 -27.94848,-25.28638 -43.71314,-45.93053 -21.93353,-28.72242 -35.57648,-44.44297 -44.46632,-51.23781 -2.86956,-2.19332 -7.95652,-6.59663 -11.30434,-9.78512 -25.39933,-24.19052 -56.59008,-38.16304 -103.5068,-46.36794 -6.71135,-1.1737 -13.24606,-2.60949 -14.52158,-3.19065 -1.27552,-0.58117 -3.6701,-3.09138 -5.32129,-5.57826 -3.76928,-5.67694 -12.17739,-14.80995 -15.37152,-16.69677 -1.36087,-0.80389 -2.62727,-2.45842 -2.89099,-3.77702 -0.26378,-1.31893 -3.82155,-5.96623 -8.12422,-10.61221 -26.63822,-28.76372 -33.37021,-36.71164 -42.78659,-50.51472 -3.21802,-4.71719 -26.69193,-28.52893 -34.00301,-34.4924 -2.6281,-2.14367 -8.49574,-7.29164 -13.03922,-11.43994 -4.54348,-4.14829 -10.21739,-9.0672 -12.6087,-10.93092 -8.21259,-6.40066 -30.43868,-21.77254 -35.65217,-24.65755 -2.86957,-1.58794 -6.41141,-3.777234 -7.87076,-4.865097 -6.10498,-4.550922 -17.81705,-8.245401 -30.10607,-9.49672 l -5.80292,-0.590878 -3.68056,7.287168 c -2.0243,4.007942 -5.61396,12.569777 -7.97703,19.026297 -11.74691,32.09564 -13.78839,42.51651 -15.41672,78.69565 -0.58046,12.89704 -1.48099,21.83677 -3.06579,30.43479 -1.81654,9.85519 -2.41926,16.89415 -3.16448,36.95652 -0.91149,24.53849 -0.90165,24.834 0.99855,30 1.0555,2.86956 2.83594,9.71739 3.95654,15.21739 2.24542,11.02075 12.30226,51.33244 12.9738,52.00397 0.23237,0.23238 -0.87934,2.22438 -2.47049,4.42666 -4.19517,5.80646 -20.7299,34.9668 -24.9814,44.05673 -1.99969,4.27543 -7.09078,15.79525 -11.31355,25.59959 -4.22276,9.80435 -7.70511,17.43479 -7.73856,16.95653 -0.0335,-0.47826 -0.63055,0.4426 -1.32692,2.04635 -0.69635,1.60377 -1.0699,3.23339 -0.83011,3.62139 0.2398,0.388 0.13195,0.8367 -0.23967,0.99712 -0.37162,0.16041 -1.80657,3.03079 -3.18878,6.37861 -1.38221,3.34783 -3.98159,9.6087 -5.77639,13.91305 -1.7948,4.30435 -4.10084,12.13043 -5.12453,17.3913 -1.02371,5.26087 -3.23214,15.23913 -4.90765,22.17392 -5.52524,22.86858 -6.44193,29.41073 -6.33172,45.1878 0.0552,7.90758 -0.36269,17.89915 -0.92872,22.2035 -2.10803,16.03052 -2.419019,25.90429 -1.65696,52.6087 1.00147,35.09433 1.81619,38.26644 10.97427,42.72851 3.32658,1.6208 6.15097,2.11332 14.56184,2.53932 19.79931,1.00282 36.2699,0.81462 51.58862,-0.58948 z"
     id="path16" />
  <path
     style="fill:#000000;stroke-width:0.869565"
     d="M 17.826087,418.69565 V 25.652174 H 408.69565 799.56522 V 418.69565 811.73913 H 408.69565 17.826087 Z M 222.17391,677.8929 c 69.47805,0.61897 190.67332,0.4095 194.19459,-0.33564 3.89893,-0.82506 9.57447,-5.53549 23.24992,-19.29639 8.95866,-9.01463 15.10302,-17.05425 21.69891,-28.39203 3.36003,-5.7756 5.82556,-7.33747 17.37832,-11.00887 11.85796,-3.76838 21.08008,-5.32265 37.39131,-6.30181 24.62139,-1.47803 50.50667,-3.56752 59.56521,-4.80817 9.60976,-1.31615 25.75962,-3.08787 46.95653,-5.15139 24.82112,-2.41633 35.58987,-5.36622 69.56521,-19.05606 9.08696,-3.66144 19.06522,-7.64554 22.17392,-8.85354 11.43437,-4.44327 23.53705,-12.64913 33.59254,-22.77644 6.34139,-6.38667 24.94977,-30.68726 26.38033,-34.44993 0.49319,-1.29715 0.89669,-4.0786 0.89669,-6.18101 0,-4.54795 -1.67905,-6.45494 -7.67167,-8.71316 -11.17869,-4.21249 -76.76811,-36.48581 -94.55229,-46.52449 -34.9201,-19.71147 -53.48817,-32.93664 -69.08039,-49.20277 -9.13421,-9.52901 -12.49253,-13.52552 -26.57382,-31.62381 -21.34312,-27.43171 -31.70553,-38.95436 -46.46965,-51.67268 -3.1087,-2.67793 -8.78261,-7.55879 -12.6087,-10.84634 -23.47413,-20.17011 -49.14038,-31.18517 -93.53,-40.13982 -9.7759,-1.97208 -18.31164,-4.02936 -18.96834,-4.57172 -0.6567,-0.54238 -4.06505,-4.55575 -7.57412,-8.91862 -3.50907,-4.36286 -8.14686,-9.38018 -10.30619,-11.1496 -2.15934,-1.76941 -4.52235,-4.4706 -5.25112,-6.00264 -0.72879,-1.53205 -6.8599,-8.85075 -13.6247,-16.2638 -17.50106,-19.17812 -25.65408,-28.75065 -32.95744,-38.69565 -10.4209,-14.19013 -39.16107,-42.3242 -62.88256,-61.5564 -12.44013,-10.08583 -44.03751,-30.991935 -51.98474,-34.39519 -4.48052,-1.918701 -13.35071,-4.164846 -19.44253,-4.923313 -2.3913,-0.297733 -5.43222,-0.744723 -6.75758,-0.993314 -2.31247,-0.433735 -2.58152,-0.08922 -6.66484,8.534206 -5.55536,11.732221 -12.53798,30.694521 -16.11728,43.768791 -3.54837,12.9613 -5.41281,25.9976 -6.52914,45.65218 -1.18008,20.77713 -1.64602,25.74011 -3.55121,37.82609 -3.31085,21.00305 -4.52753,60.57846 -2.07517,67.49936 0.74155,2.09274 3.64118,13.58759 6.44362,25.54411 2.80244,11.95653 6.29189,26.19694 7.75431,31.64539 l 2.65897,9.90625 -5.49453,8.7894 c -12.0374,19.2558 -21.80827,37.95141 -30.27059,57.91983 -1.92546,4.54348 -5.57984,12.76087 -8.12084,18.26087 -15.10141,32.68705 -15.71211,34.63199 -27.4405,87.39131 -1.25316,5.63723 -1.9687,13.54141 -2.55836,28.26087 -0.45024,11.23913 -1.31302,23.95652 -1.9173,28.26087 -1.342281,9.56121 -1.23654,58.28699 0.15568,71.73913 1.23013,11.88597 3.23272,16.10887 9.03294,19.04801 6.04563,3.06349 12.40967,3.49211 43.19095,2.90892 15.06522,-0.28544 45.97826,-0.35339 68.69565,-0.15099 z"
     id="path17" />
  <path
     style="fill:#000000;stroke-width:0.869565"
     d="M 17.826087,418.69565 V 25.652174 H 408.69565 799.56522 V 418.69565 811.73913 H 408.69565 17.826087 Z M 222.6087,677.87577 c 68.50772,0.63207 190.19122,0.43671 193.71987,-0.31102 3.85048,-0.81593 10.62193,-6.45959 23.43614,-19.53285 10.10037,-10.30455 13.63591,-14.83973 19.9355,-25.57212 4.26758,-7.2705 4.87284,-7.90243 9.81522,-10.24764 11.27374,-5.3495 29.82375,-9.02706 50.48457,-10.00865 17.41457,-0.82736 45.08669,-3.03678 55.21739,-4.4087 10.05766,-1.36203 26.15873,-3.12846 47.25814,-5.18462 23.90636,-2.32969 37.19874,-5.88841 65.78534,-17.61247 6.93478,-2.84412 17.3877,-7.0374 23.22869,-9.31839 20.21562,-7.89448 34.50866,-19.47264 50.98063,-41.29717 11.13562,-14.75415 12.7472,-17.62344 12.7472,-22.69537 0,-5.16326 -1.52173,-6.54621 -12.17391,-11.06374 -10.79006,-4.576 -60.47345,-28.76683 -77.52511,-37.74695 -16.10333,-8.48071 -40.77199,-23.17142 -51.93394,-30.92778 -18.36245,-12.75993 -31.61155,-25.5971 -48.67923,-47.16569 -31.88518,-40.29363 -37.73192,-46.95201 -52.61383,-59.91767 -4.718,-4.1105 -10.97887,-9.56037 -13.91304,-12.11081 -8.02718,-6.97742 -23.34076,-16.9037 -33.59572,-21.77679 -16.94265,-8.05104 -34.78659,-13.43134 -62.58415,-18.87035 -17.24925,-3.37507 -15.26878,-2.18936 -26.40364,-15.80791 -2.79112,-3.41368 -6.41208,-7.22672 -8.04659,-8.47342 -1.6345,-1.24669 -4.28556,-4.30009 -5.89123,-6.78532 -1.60567,-2.48524 -7.91925,-9.99686 -14.03017,-16.69251 -15.739,-17.24501 -24.32606,-27.32809 -32.21386,-37.82609 -13.98675,-18.61517 -51.41885,-53.70464 -75.64352,-70.9095 -28.19247,-20.022861 -41.17804,-26.84963 -55.18684,-29.01281 -3.58696,-0.553881 -7.78083,-1.204613 -9.31971,-1.446067 -2.71447,-0.425909 -2.88939,-0.257473 -5.86149,5.644341 -6.79636,13.495756 -16.41806,40.590576 -19.4795,54.854466 -2.35055,10.95177 -3.35118,19.93258 -4.89268,43.91305 -0.7071,11 -2.07309,25.13361 -3.03553,31.40802 -2.00219,13.05288 -3.47884,34.71344 -3.49047,51.20067 -0.007,9.33979 0.35639,12.58887 2.0886,18.69566 1.15311,4.06521 3.93632,15.21739 6.1849,24.7826 2.24858,9.56522 5.41958,22.43034 7.04665,28.58917 l 2.95832,11.19785 -4.21566,6.62824 c -4.25929,6.69684 -12.58591,21.17274 -19.06803,33.14996 -1.94128,3.58696 -7.3229,15.13044 -11.95917,25.65218 -4.63626,10.52173 -9.54127,21.47826 -10.90001,24.34782 -3.29798,6.96509 -11.10075,25.74706 -13.04973,31.41184 -1.42584,4.14428 -6.43761,25.14721 -11.80172,49.45773 -1.66536,7.54754 -2.28771,13.8757 -2.95039,30 -0.4619,11.23913 -1.32614,24.15217 -1.92054,28.69565 -1.303873,9.96666 -1.214293,56.76044 0.13567,70.86956 1.15776,12.10024 3.07345,16.2472 8.91731,19.3036 6.09184,3.1861 13.16597,3.68998 43.30883,3.08482 15.06522,-0.30246 46.17391,-0.37662 69.13044,-0.16482 z"
     id="path18" />
  <path
     style="fill:#000000;stroke-width:0.869565"
     d="M 17.826087,418.69565 V 25.652174 H 408.69565 799.56522 V 418.69565 811.73913 H 408.69565 17.826087 Z M 226.08696,677.82609 c 24.86956,0.23913 77.69565,0.42474 117.3913,0.41247 67.07772,-0.0207 72.3938,-0.13026 75.288,-1.55117 4.25239,-2.0877 26.63898,-23.64273 32.03232,-30.84246 2.40815,-3.21471 6.42448,-9.32985 8.92517,-13.58919 4.35487,-7.4175 4.77951,-7.84982 10.06396,-10.24591 11.63041,-5.27347 29.57914,-8.81202 49.77751,-9.81351 20.2758,-1.00533 45.60398,-3.0976 58.26087,-4.81272 6.93478,-0.93972 21.21739,-2.51227 31.73913,-3.49454 33.84687,-3.15983 45.97418,-5.83469 69.29115,-15.28321 7.80291,-3.1619 19.20306,-7.65761 25.33366,-9.99045 27.27228,-10.37778 40.16561,-20.25254 58.81598,-45.04604 4.45932,-5.92817 9.02644,-12.38469 10.14915,-14.34783 2.55843,-4.47363 2.80129,-10.89184 0.49124,-12.98241 -0.86405,-0.78195 -6.63579,-3.71536 -12.82609,-6.51869 -16.0754,-7.27987 -59.51546,-28.53117 -75.26037,-36.8181 -17.63916,-9.28392 -43.84211,-25.0981 -56.35525,-34.0119 C 615.05706,418.8123 597.70298,401.29957 582.10545,381.3606 555.8635,347.81442 546.70682,337.58039 529.14944,322.17391 509.84883,305.23777 500.55133,298.70337 485.04012,291.17331 468.39256,283.09162 452.7579,278.47373 415.7021,270.69349 l -9.51529,-1.99784 -4.69646,-5.65217 c -2.58305,-3.1087 -7.70686,-8.78261 -11.38625,-12.6087 -3.67939,-3.82608 -7.73734,-8.52174 -9.01768,-10.43478 -1.28034,-1.91304 -7.66346,-9.34783 -14.18472,-16.52174 -15.52513,-17.07892 -23.03058,-25.92262 -30.9952,-36.52174 -16.39225,-21.81439 -53.91261,-56.1793 -84.16737,-77.08892 -11.8615,-8.1977 -27.99319,-17.74069 -33.42423,-19.772703 -4.66986,-1.747219 -14.96502,-3.960421 -22.10416,-4.751844 l -3.78926,-0.420065 -4.16196,8.842854 c -7.79081,16.553028 -17.00789,44.325738 -19.4324,58.553338 -1.37216,8.05217 -2.35873,18.80693 -4.05483,44.20256 -0.51106,7.65217 -1.68275,18.80435 -2.60375,24.78261 -1.89569,12.30504 -3.45197,35.25671 -3.46448,51.09297 -0.007,8.67065 0.39752,12.15704 2.16836,18.69565 1.19722,4.42061 5.26994,20.71523 9.05047,36.21026 l 6.87369,28.1728 -7.62377,12.69677 c -11.90572,19.828 -17.65599,30.8631 -26.68988,51.21937 -4.60554,10.37779 -9.645,21.60783 -11.19878,24.95566 -4.3884,9.45532 -11.37626,26.36367 -13.47649,32.60869 -2.50281,7.44213 -11.90112,48.60958 -13.49916,59.13044 -0.69013,4.54347 -1.26906,12.36956 -1.28653,17.3913 -0.0175,5.02174 -0.42088,14.02174 -0.89648,20 -2.01264,25.29893 -2.385824,39.58052 -1.62464,62.17391 1.0648,31.60569 2.06672,35.29957 10.78705,39.77003 5.26101,2.69705 14.05993,3.22169 43.05993,2.56744 14.58695,-0.32908 46.86956,-0.40268 71.73913,-0.16355 z"
     id="path19" />
  <path
     style="fill:#000000;stroke-width:0.869565"
     d="M 17.826087,418.69565 V 25.652174 H 408.69565 799.56522 V 418.69565 811.73913 H 408.69565 17.826087 Z M 230,677.82609 c 27.02174,0.23913 79.67202,0.40961 117.00063,0.37885 67.69676,-0.0558 67.8801,-0.0607 71.74721,-1.93277 4.77744,-2.31272 23.67585,-20.08855 30.56039,-28.74509 2.79333,-3.51228 7.27296,-10.11422 9.95476,-14.67098 4.72794,-8.03346 5.0455,-8.36187 10.45898,-10.81646 12.7654,-5.78811 29.5674,-8.83857 56.79977,-10.3122 20.70234,-1.12027 43.66558,-3.12785 54.89576,-4.79931 4.60572,-0.6855 16.9318,-2.0357 27.39131,-3.00044 27.57554,-2.54346 38.40396,-4.36949 52.49554,-8.85246 7.56842,-2.40776 54.95046,-21.22006 60.43478,-23.99469 14.50725,-7.33951 27.91774,-19.68403 42.31777,-38.954 9.33392,-12.49057 11.16049,-15.90388 11.16049,-20.85562 0,-4.30082 -2.14572,-6.07394 -13.47826,-11.13769 C 734.45576,487.9421 684.03509,462.67159 665.65217,451.97506 619.92514,425.3677 608.79719,415.44906 571.17629,367.76615 553.74151,345.66831 546.0701,337.26508 531.72338,324.54959 495.99642,292.88482 475.94481,283.21875 423.91304,272.5786 l -16.95652,-3.4675 -4.34782,-4.96195 c -2.39131,-2.72908 -7.69252,-8.49647 -11.78047,-12.81642 -4.08795,-4.31996 -8.49031,-9.41969 -9.78301,-11.33273 -1.29271,-1.91304 -9.41835,-11.30435 -18.05699,-20.86957 -8.63864,-9.56521 -19.3015,-22.07472 -23.69525,-27.79889 -15.66708,-20.41108 -39.94102,-44.43287 -66.45841,-65.76805 -13.09869,-10.53886 -39.79941,-28.378623 -49.50627,-33.077013 -6.7296,-3.25731 -16.70673,-5.8776 -27.0495,-7.103991 -3.71441,-0.440436 -3.72511,-0.433509 -5.86878,3.796816 -3.82279,7.543911 -10.64008,24.835988 -14.75393,37.423378 -6.66819,20.40302 -8.24515,30.00711 -10.4096,63.39732 -0.69756,10.76087 -2.04754,24.84783 -2.99998,31.30435 -1.90795,12.93402 -3.54855,36.49432 -3.55504,51.05335 -0.004,10.02736 0.22406,11.1152 13.53884,64.44789 l 4.62979,18.54471 -7.91047,13.19442 c -10.53877,17.57833 -19.07749,34.13181 -27.66337,53.62919 -3.89623,8.84783 -8.20996,18.43479 -9.58606,21.30435 -4.03323,8.41041 -13.51382,31.76289 -15.00354,36.95652 -1.16791,4.07175 -10.68372,45.64012 -12.24221,53.47826 -0.28528,1.43479 -0.90224,11.41305 -1.37102,22.17392 -0.46877,10.76087 -1.30412,23.99664 -1.85634,29.41282 -1.256799,12.32667 -0.53626,71.65282 0.94401,77.72584 2.32879,9.55419 7.82417,13.51757 20.26357,14.61454 4.40006,0.38801 19.34794,0.44575 33.2175,0.12831 13.86957,-0.31744 47.32609,-0.38151 74.34783,-0.14238 z"
     id="path20" />
  <path
     style="fill:#000000;stroke-width:0.869565"
     d="M 17.826087,418.69565 V 25.652174 H 408.69565 799.56522 V 418.69565 811.73913 H 408.69565 17.826087 Z m 211.739133,259.2264 c 88.70488,0.39728 182.28888,0.11469 186.28831,-0.56251 4.82857,-0.81759 24.31516,-18.38738 34.43885,-31.05128 2.19667,-2.74784 6.21079,-8.76283 8.92027,-13.36663 4.73158,-8.03962 5.13672,-8.46569 10.24814,-10.77744 11.89894,-5.38155 29.66549,-9.01085 48.80008,-9.96876 20.69945,-1.03624 45.026,-3.07576 62.6087,-5.24906 9.56521,-1.18232 24.04347,-2.75011 32.17391,-3.484 18.73284,-1.69089 34.00975,-4.21681 44.686,-7.38848 10.31183,-3.06342 57.58109,-21.67787 65.314,-25.72041 14.10471,-7.37353 26.14129,-18.62992 40.87068,-38.22149 9.01231,-11.98728 11.30323,-16.18454 11.30323,-20.70892 0,-4.22961 -2.23539,-6.27793 -11.00596,-10.08491 C 753.37339,496.63377 698.3155,469.77694 685.53977,462.9627 658.69387,448.64383 633.69922,432.99438 620,421.92748 c -9.80172,-7.91831 -23.46207,-22.33357 -35.6117,-37.5797 -5.71687,-7.17388 -13.98289,-17.54343 -18.36895,-23.04343 -13.75978,-17.25439 -21.61931,-25.54267 -37.09566,-39.11926 -33.65023,-29.51957 -54.50011,-39.36497 -105.01065,-49.5865 l -16.95652,-3.43139 -4.78261,-5.3902 c -2.63043,-2.96461 -8.10869,-8.98862 -12.17391,-13.38669 -4.06522,-4.39807 -8.82566,-9.90466 -10.57876,-12.23688 -1.75309,-2.33221 -9.69701,-11.47952 -17.65314,-20.32734 -7.95612,-8.84783 -18.24535,-20.94137 -22.86496,-26.87453 C 315.38297,160.74357 279.43631,128.08493 244.78261,105.4402 223.78258,91.717573 214.6259,87.764397 199.3481,85.824937 c -5.03287,-0.638905 -6.05996,-0.534407 -7.20719,0.733263 -2.23441,2.468997 -10.6767,22.8656 -15.60661,37.7056 -7.41989,22.33536 -8.95662,31.33662 -11.29693,66.17098 -0.7069,10.52174 -2.06691,24.6087 -3.02225,31.30435 -2.10555,14.75722 -3.86637,43.81137 -3.31366,54.67675 0.39618,7.78827 3.43782,21.44857 14.23132,63.91425 l 3.84121,15.11274 -5.13402,8.36552 c -14.05065,22.89458 -19.59548,33.76263 -35.79278,70.15495 -18.62136,41.83872 -18.47995,41.42819 -26.49027,76.90623 -4.98224,22.06653 -5.36235,25.07548 -7.52463,59.56521 -1.44964,23.12264 -1.88604,66.9346 -0.81086,81.40515 1.22574,16.49683 3.0687,20.51177 10.98431,23.92974 4.23148,1.82716 18.88745,2.8527 32.14209,2.24914 5.26087,-0.23957 43.60869,-0.28311 85.21739,-0.0968 z"
     id="path21" />
  <path
     style="fill:#000000;stroke-width:0.869565"
     d="M 17.826087,418.69565 V 25.652174 H 408.69565 799.56522 V 418.69565 811.73913 H 408.69565 17.826087 Z M 417.08274,677.07384 c 3.28135,-1.24757 17.03934,-13.0344 24.5595,-21.04077 8.05738,-8.57832 11.58626,-13.26493 17.88554,-23.75331 4.37553,-7.28532 4.93585,-7.85553 9.94579,-10.12136 11.75346,-5.31572 29.5171,-8.97274 48.35252,-9.95438 20.15754,-1.05055 44.67804,-3.11112 62.60869,-5.26129 9.80435,-1.1757 24.28261,-2.7533 32.17392,-3.50577 26.39556,-2.51697 40.65713,-5.27522 55.21739,-10.67926 20.37108,-7.56074 53.56917,-21.39098 58.78518,-24.48975 13.71783,-8.14961 23.45918,-17.73045 38.467,-37.83317 8.52924,-11.42477 10.13912,-14.46443 10.13912,-19.14402 0,-4.08243 -2.32416,-6.18414 -11.00596,-9.95261 -11.8925,-5.16212 -64.51343,-30.82787 -79.42882,-38.74125 -26.74838,-14.19137 -52.58962,-30.5153 -66.11129,-41.76254 -10.92153,-9.08446 -23.20379,-22.55166 -41.29412,-45.27799 -24.11093,-30.2898 -32.01196,-38.9848 -48.33103,-53.18775 -17.6309,-15.34469 -27.02676,-22.12302 -39.9562,-28.8251 -17.95729,-9.30829 -36.37422,-15.18492 -66.91606,-21.35212 l -15.21739,-3.0728 -3.47826,-3.80288 c -1.91304,-2.09158 -7.17773,-7.81442 -11.6993,-12.71742 -4.52158,-4.90301 -9.29646,-10.39913 -10.61086,-12.2136 -2.3725,-3.27515 -9.69659,-11.70454 -24.56692,-28.27442 -4.26066,-4.74761 -12.94305,-15.13118 -19.29421,-23.07461 -23.3591,-29.21536 -57.00002,-59.81111 -89.91567,-81.77651 -18.81897,-12.558357 -29.17842,-17.680017 -40.34861,-19.948148 -4.73522,-0.961496 -10.01783,-1.630248 -11.73913,-1.486115 -2.90716,0.24343 -3.32779,0.66387 -5.91679,5.914233 -6.91121,14.01552 -16.49321,41.45289 -19.3182,55.31629 -2.15323,10.56674 -3.15569,19.70567 -4.80604,43.81415 -0.7039,10.2826 -1.85909,22.60869 -2.5671,27.3913 -2.32587,15.71123 -3.36382,30.16722 -3.46516,48.26087 l -0.0998,17.82609 8.90047,35.51074 8.90046,35.51073 -8.10398,13.6197 c -12.11516,20.36098 -17.04064,29.96556 -28.9597,56.47085 -19.47115,43.29943 -22.29123,50.94152 -28.19345,76.40103 -7.00066,30.19769 -7.63615,34.25495 -8.61818,55.02256 -0.46551,9.84454 -1.29999,23.57128 -1.85439,30.50387 -1.215421,15.19839 -0.5352,66.58974 0.9839,74.33428 0.56097,2.85991 1.56454,6.25298 2.23016,7.54014 1.63414,3.16008 5.9435,6.09421 10.74845,7.31834 4.93413,1.25704 298.64759,1.73739 301.91857,0.49377 z"
     id="path22" />
  <path
     style="fill:#000000;stroke-width:0.869565"
     d="M 17.826087,418.69565 V 25.652174 H 408.69565 799.56522 V 418.69565 811.73913 H 408.69565 17.826087 Z M 415.65781,677.33288 c 5.18363,-0.97246 24.25203,-18.1498 34.40146,-30.98979 1.91068,-2.41719 5.8587,-8.27552 8.77337,-13.01852 4.49776,-7.31911 5.90863,-8.93236 9.32655,-10.66435 11.1197,-5.63478 30.95405,-9.49001 56.18864,-10.92148 20.62952,-1.17024 42.06662,-3.04226 59.56521,-5.20158 7.41305,-0.91478 19.93479,-2.2817 27.82609,-3.03762 33.57544,-3.21622 43.43188,-5.65738 77.58571,-19.21581 37.867,-15.03249 44.17726,-18.55972 57.80763,-32.3127 8.41582,-8.4915 24.48183,-29.51925 26.59978,-34.81472 3.31991,-8.30064 1.59087,-10.73203 -11.99423,-16.86646 -16.06988,-7.25644 -63.96398,-30.69901 -77.39019,-37.87991 -26.96343,-14.42119 -52.35567,-30.49539 -65.67651,-41.57558 -11.00692,-9.15549 -23.17774,-22.53209 -42.76335,-47 -24.17686,-30.20366 -29.69629,-36.3137 -44.52032,-49.28429 -22.26056,-19.47734 -31.02727,-25.69544 -46.9427,-33.29583 -16.79465,-8.02025 -32.68476,-12.84373 -62.70582,-19.03452 l -14.78261,-3.0484 -3.47826,-3.80129 c -1.91304,-2.09071 -7.19116,-7.84396 -11.72916,-12.785 -4.538,-4.94105 -9.32418,-10.46534 -10.63597,-12.27622 -1.31179,-1.81087 -9.1093,-10.83856 -17.32782,-20.06152 -8.21851,-9.22297 -19.45594,-22.44294 -24.97207,-29.37772 -29.30059,-36.83619 -80.27065,-80.24668 -114.35367,-97.393421 -8.87189,-4.463337 -21.02654,-7.786004 -28.57907,-7.812552 -3.15433,-0.01109 -3.33985,0.167104 -6.3061,6.057292 -7.31432,14.524321 -16.83367,41.974481 -19.90884,57.409541 -1.63699,8.21649 -2.76997,19.039 -4.41503,42.17392 -0.71416,10.04348 -2.08769,24.06919 -3.05226,31.16825 -2.08678,15.35818 -3.90839,48.13111 -3.14337,56.55309 0.29887,3.29021 4.44931,21.83774 9.22319,41.21674 l 8.6798,35.23455 -6.82225,11.39194 c -14.67638,24.50698 -17.3075,29.72645 -35.11179,69.65282 -16.72408,37.50397 -17.53679,39.88917 -25.48054,74.78261 -4.85654,21.33268 -5.53666,26.23235 -6.51066,46.90337 -0.49715,10.55097 -1.28171,23.48793 -1.74345,28.7488 -1.05495,12.01948 -1.05018,48.44561 0.008,63.79319 0.95361,13.82636 2.54013,19.33681 6.38506,22.1773 4.11102,3.03705 5.55062,3.45854 13.62174,3.98815 10.42614,0.68413 290.81235,1.08203 294.35346,0.41772 z"
     id="path23" />
  <path
     style="fill:#000000;stroke-width:0.869565"
     d="M 17.826087,418.69565 V 25.652174 H 408.69565 799.56522 V 418.69565 811.73913 H 408.69565 17.826087 Z M 415.91964,677.00157 c 4.51497,-1.21575 19.21764,-13.71092 28.63719,-24.33752 4.1894,-4.72623 10.31767,-12.95648 13.6184,-18.28942 5.1651,-8.34519 6.55935,-9.97903 10.0062,-11.72568 9.755,-4.94323 30.38522,-9.40116 48.34031,-10.44573 23.22729,-1.35129 46.56713,-3.28168 63.47826,-5.25016 10.04348,-1.16908 24.32609,-2.72864 31.73913,-3.4657 24.85523,-2.47131 35.84415,-4.37997 48.69565,-8.45796 9.91877,-3.14737 53.65552,-20.52284 61.18045,-24.30539 15.93447,-8.00975 26.36183,-17.65809 42.87576,-39.67256 10.82853,-14.43535 12.7095,-19.58909 8.76988,-24.02902 -1.1056,-1.246 -9.89845,-5.95005 -20.21739,-10.81599 C 692.88274,467.83737 664.2549,452.57319 636.80259,434.22758 615.01435,419.66711 603.7023,408.44576 575.54803,373.46414 564.96902,360.31973 553.30639,346.23913 549.6311,342.17391 537.04599,328.25362 510.40037,305.91671 496.33005,297.4919 478.42512,286.77106 456.57758,279.37277 421.73913,272.23299 l -14.78261,-3.02954 -3.47826,-3.78969 c -11.37211,-12.39033 -21.43929,-23.7472 -25.32985,-28.57484 -2.45316,-3.04402 -10.23092,-11.99109 -17.28393,-19.8824 C 353.81148,209.06522 343.51879,196.93478 337.99183,190 314.65205,160.71506 280.43573,129.59145 247.04336,107.2721 224.40177,92.13853 213.4776,87.349456 198.38343,85.939941 l -5.6296,-0.5257 -2.64764,5.244965 c -6.31894,12.517734 -15.79656,38.738934 -19.0914,52.819054 -2.61909,11.19239 -3.45396,17.93896 -5.37653,43.44787 -0.93846,12.4515 -2.48496,28.50865 -3.43666,35.68257 -2.48443,18.7276 -3.99172,52.56934 -2.67979,60.16713 0.56221,3.2559 4.71431,20.94155 9.2269,39.30144 l 8.20472,33.38163 -7.3016,12.27054 c -14.03308,23.58306 -17.87285,31.20646 -34.43042,68.35752 -17.26054,38.72833 -18.18145,41.48538 -26.51941,79.39449 -4.18151,19.01155 -4.48828,21.82843 -7.06229,64.84902 -1.56162,26.09998 -1.29653,69.84871 0.48736,80.43305 1.96997,11.68836 6.63257,15.454 20.04684,16.1904 16.59199,0.91085 290.37514,0.95526 293.74573,0.0476 z"
     id="path24" />
  <path
     style="fill:#000000;stroke-width:0.869565"
     d="M 17.826087,418.69565 V 25.652174 H 408.69565 799.56522 V 418.69565 811.73913 H 408.69565 17.826087 Z M 419.16803,675.72983 c 5.0459,-3.26071 18.40981,-15.2566 23.98173,-21.5268 6.86178,-7.7217 11.32084,-13.74097 16.83576,-22.72654 3.36686,-5.48569 4.93317,-7.17419 8.18238,-8.82068 10.94148,-5.54447 30.32787,-9.38958 54.87558,-10.88408 21.83635,-1.32942 43.72607,-3.23434 60.43478,-5.25925 7.65217,-0.92737 20.36957,-2.30316 28.26087,-3.05733 26.29434,-2.51294 40.6258,-5.3319 56.52174,-11.11767 14.38441,-5.23562 47.7454,-18.79573 53.76936,-21.85544 14.23522,-7.23038 26.51759,-18.4944 40.79724,-37.41468 12.66525,-16.78122 14.52955,-21.43418 10.4334,-26.03983 -1.09166,-1.22745 -9.06757,-5.51077 -18.04348,-9.68994 -29.32769,-13.65491 -75.00976,-36.7215 -89.56522,-45.22484 -17.81877,-10.40978 -36.63896,-22.76581 -45.21739,-29.68661 -10.93821,-8.82459 -24.71625,-23.8705 -45.21739,-49.37832 -22.3176,-27.76789 -32.56806,-38.77243 -50.43478,-54.14499 -30.46031,-26.20812 -52.80931,-36.41235 -101.30435,-46.25408 -7.17391,-1.4559 -13.87483,-2.83825 -14.89091,-3.07189 -1.789,-0.41136 -20.14054,-19.88422 -26.5059,-28.12545 C 380.35669,239.21835 371.9922,229.56522 363.4937,220 354.9952,210.43478 343.50952,196.93478 337.96997,190 314.00537,159.9995 277.77946,127.3563 243.44472,104.82322 224.31592,92.269431 212.76494,87.413605 198.7446,86.032077 l -6.00726,-0.59194 -2.99033,5.975583 c -5.62459,11.23965 -14.49797,35.40987 -17.99784,49.02439 -2.75154,10.70352 -4.20155,21.75989 -6.05697,46.18463 -0.96708,12.73056 -2.54748,29.29265 -3.51201,36.80464 -2.01953,15.72856 -3.85417,50.16482 -3.01389,56.57062 0.57757,4.4031 8.04301,36.36778 14.39195,61.62187 l 3.4683,13.79579 -8.34138,14.0303 c -13.47712,22.66871 -27.978,52.63494 -43.53024,89.95567 -7.28298,17.47697 -8.85759,22.66024 -14.57804,47.98767 -5.84479,25.87796 -6.43411,29.8735 -7.50298,50.86957 -0.4626,9.08696 -1.29711,23.36956 -1.85447,31.73913 -1.1414,17.13967 -0.52099,61.32338 0.98864,70.4081 1.32701,7.98572 3.01567,11.00665 7.68082,13.7406 3.5799,2.09797 5.1313,2.39939 14.45206,2.80791 5.74291,0.25169 73.84987,0.45248 151.34881,0.44616 137.22456,-0.0112 140.97437,-0.0549 143.47826,-1.67294 z"
     id="path25" />
  <path
     style="fill:#000000;stroke-width:0.869565"
     d="M 17.826087,418.69565 V 25.652174 H 408.69565 799.56522 V 418.69565 811.73913 H 408.69565 17.826087 Z m 388.579193,258.62844 11.62266,-0.61295 6.63821,-5.27869 c 12.03672,-9.57157 23.12029,-21.73063 31.88609,-34.98013 7.85075,-11.86639 8.25608,-12.31182 13.16526,-14.46794 14.18598,-6.23049 29.74103,-9.01116 59.84772,-10.69854 13.88683,-0.77831 37.48615,-2.84129 49.90411,-4.36247 5.92552,-0.72587 20.20813,-2.29638 31.73913,-3.49002 38.50874,-3.98627 43.27402,-5.22234 85.31328,-22.12934 11,-4.4239 22.34783,-9.21843 25.21739,-10.65452 14.02261,-7.01771 27.58405,-19.54346 42.11755,-38.90099 11.98215,-15.95933 13.64781,-20.67011 8.87332,-25.09527 -1.36806,-1.26798 -7.92241,-4.82507 -14.56522,-7.90467 -25.95836,-12.03428 -75.41622,-36.83286 -89.46913,-44.86056 -17.55788,-10.02991 -39.18691,-24.12758 -48.26087,-31.45613 -9.82855,-7.93799 -24.20312,-23.24665 -38.21489,-40.69817 -30.08374,-37.46899 -38.5439,-46.67583 -58.66779,-63.84574 -29.13037,-24.85433 -50.24465,-34.58508 -96.1608,-44.31675 -9.32608,-1.97661 -17.77519,-3.77636 -18.77579,-3.99943 -1.70654,-0.38045 -21.24848,-21.14505 -28.36442,-30.13907 -1.77495,-2.2434 -9.74846,-11.44655 -17.7189,-20.45146 C 354.56175,209.97635 343.50531,196.93478 337.96234,190 327.09032,176.39807 302.11998,150.78396 287.3913,138.12515 263.30872,117.42697 235.14837,97.941293 220.00613,91.497694 c -6.27652,-2.6709 -19.54373,-5.813944 -24.6265,-5.834097 -2.78469,-0.01104 -3.00789,0.258119 -6.66066,8.032055 -4.9946,10.629678 -11.91596,29.329668 -15.62429,42.213408 -3.73108,12.9628 -5.35045,23.75318 -7.02925,46.83804 -1.32373,18.20258 -1.95853,24.74936 -4.30601,44.40953 -1.66894,13.97738 -3.30386,47.32536 -2.5907,52.84337 0.30906,2.3913 4.28333,19.6087 8.83171,38.26087 4.54839,18.65217 8.44196,34.69565 8.6524,35.65217 0.24563,1.11656 -2.5523,6.64277 -7.8159,15.43719 -13.19173,22.04077 -24.99475,46.25891 -42.48414,87.17151 -7.51442,17.57836 -9.87271,25.17419 -15.52356,50 -5.35565,23.52888 -6.55264,30.84916 -7.32271,44.78261 -0.26433,4.78261 -1.11547,19.06522 -1.89143,31.73913 -1.04295,17.03449 -1.26679,29.39259 -0.85841,47.3913 0.7787,34.32045 1.91631,39.65219 9.37096,43.91987 3.57546,2.0469 4.70175,2.1912 20.30714,2.60187 27.18374,0.71537 263.40965,1.02999 275.9705,0.36757 z"
     id="path26" />
  <path
     style="fill:#000000;stroke-width:0.869565"
     d="M 17.826087,418.69565 V 25.652174 H 408.69565 799.56522 V 418.69565 811.73913 H 408.69565 17.826087 Z M 418.20199,676.39846 c 3.62084,-2.1395 16.95856,-14.16255 24.10386,-21.72797 4.22251,-4.47079 10.77058,-12.89851 14.92477,-19.20901 7.09755,-10.78165 7.60997,-11.33673 12.47676,-13.51558 13.45198,-6.0224 27.65404,-8.58046 58.98827,-10.62488 23.66732,-1.54419 32.91301,-2.36673 53.91305,-4.79639 8.13043,-0.94066 22.80434,-2.52296 32.60869,-3.5162 20.10891,-2.03717 36.03671,-4.96346 47.02018,-8.63863 8.73832,-2.92393 47.12833,-18.12501 56.20228,-22.2541 14.42317,-6.56326 27.18828,-17.2772 40.34101,-33.85879 14.52953,-18.31732 18.27749,-25.75253 15.28419,-30.32087 -1.42316,-2.17201 -1.72409,-2.32759 -39.71722,-20.53271 -30.13238,-14.4385 -52.39968,-25.8591 -68.69566,-35.23308 -15.17406,-8.72862 -36.90651,-23.02626 -45.28636,-29.79361 -10.45202,-8.44077 -25.16683,-24.33981 -42.47931,-45.89801 -26.42555,-32.90613 -34.41041,-41.54291 -53.53867,-57.90983 -29.72493,-25.43386 -51.03666,-35.29649 -97.39131,-45.07068 -9.08695,-1.91604 -17.34213,-3.675 -18.34482,-3.90878 -1.74573,-0.40702 -21.13431,-21.01089 -28.28853,-30.06165 -1.88456,-2.38416 -9.57743,-11.27496 -17.09527,-19.75735 C 355.71008,211.28796 344.30186,197.8913 337.87631,190 298.99058,142.24391 236.64601,93.530766 206.52174,87.365657 c -13.97007,-2.859058 -13.40339,-3.060771 -17.78318,6.329995 -4.59225,9.846268 -11.71009,28.842328 -15.16537,40.473248 -3.6319,12.22543 -5.93549,27.25099 -7.49306,48.87458 -0.74066,10.28261 -2.30263,26.91304 -3.47104,36.95652 -2.74243,23.57339 -4.21627,53.03783 -3.06061,61.1863 0.47423,3.3438 4.44513,20.68393 8.82421,38.53363 4.37908,17.84969 8.12209,33.23659 8.31781,34.19311 0.22274,1.08853 -2.48298,6.45597 -7.23271,14.34783 -13.59272,22.58483 -33.93941,65.01602 -47.40692,98.86286 -7.50923,18.87235 -16.77685,59.79327 -18.10633,79.94788 -0.46904,7.11062 -1.27383,19.18926 -1.78843,26.84143 -2.249254,33.44737 -1.77099,81.66576 0.9032,91.05996 1.11553,3.91877 4.45184,8.04472 8.13123,10.05577 3.86929,2.11483 22.29748,2.36253 175.76598,2.36253 95.54106,0 130.00646,-0.26072 131.24547,-0.99284 z"
     id="path27" />
  <path
     style="fill:#000000;stroke-width:0.869565"
     d="M 17.826087,418.69565 V 25.652174 H 408.69565 799.56522 V 418.69565 811.73913 H 408.69565 17.826087 Z M 420.50927,674.78851 c 2.11121,-1.43153 9.55256,-8.27935 16.53633,-15.21739 10.49279,-10.42407 13.9905,-14.58887 20.14216,-23.98382 7.15778,-10.93152 7.63979,-11.45671 12.51962,-13.6414 12.5483,-5.61783 28.2297,-8.66654 52.46653,-10.20031 21.53796,-1.36298 43.91389,-3.29396 60.43479,-5.21533 8.13043,-0.94557 22.41304,-2.52299 31.73913,-3.50537 21.22515,-2.23582 30.1646,-3.71456 41.79109,-6.913 10.82352,-2.97755 61.03736,-22.88711 69.11134,-27.40233 12.33334,-6.8972 25.22757,-19.21599 38.24231,-36.53565 8.74803,-11.64162 12.23633,-18.62081 11.1956,-22.39954 -0.8816,-3.20094 2.11996,-1.59101 -58.60121,-31.43164 -18.89131,-9.28389 -40.6087,-20.47969 -48.26087,-24.87956 -16.9209,-9.72921 -38.56502,-23.90225 -47.39131,-31.03282 -10.8126,-8.73528 -25.5475,-24.69792 -44.23269,-47.91824 -21.90953,-27.22723 -30.07932,-36.36933 -42.77673,-47.86771 -36.4666,-33.02301 -58.1585,-43.48495 -112.99058,-54.49503 -6.45652,-1.29645 -12.52174,-2.84446 -13.47826,-3.44001 -3.09801,-1.92892 -54.85532,-60.94773 -70.9074,-80.85563 -32.10139,-39.81237 -91.94147,-88.166544 -121.588,-98.24998 -8.93811,-3.040046 -19.68363,-4.517207 -21.57325,-2.96562 -2.02089,1.659373 -7.02407,12.779637 -12.66264,28.14448 -10.01237,27.28319 -11.5618,35.10129 -14.56234,73.47826 -0.95353,12.19565 -2.29871,26.47826 -2.98927,31.73913 -1.93277,14.72421 -3.12999,32.47405 -3.25515,48.26087 l -0.11377,14.34783 5.71273,23.47826 c 3.142,12.91304 7.14781,29.34782 8.9018,36.52174 l 3.18908,13.04347 -6.01168,10 c -13.68884,22.7704 -20.09733,35.42686 -35.91215,70.92484 -14.4968,32.53955 -17.24164,40.12022 -22.49214,62.11864 -7.62763,31.95799 -7.73588,32.74118 -10.69791,77.39131 -1.38487,20.87586 -1.29575,72.38517 0.14286,82.57221 1.10781,7.8446 1.79182,9.72438 4.7105,12.94519 4.6058,5.08258 2.16918,4.87342 63.15221,5.42095 30.84783,0.27698 98.9683,0.47263 151.37883,0.43479 l 95.29189,-0.0688 z"
     id="path28" />
  <path
     style="fill:#000000;stroke-width:0.869565"
     d="M 17.826087,418.69565 V 25.652174 H 408.69565 799.56522 V 418.69565 811.73913 H 408.69565 17.826087 Z M 420.87035,674.37688 c 2.39088,-1.6287 9.84442,-8.46456 16.56345,-15.19081 9.78499,-9.7955 13.71026,-14.49367 19.72207,-23.60537 7.3449,-11.13215 7.62283,-11.4284 12.97635,-13.83092 13.03301,-5.84887 27.40417,-8.41815 58.56343,-10.47003 11.47826,-0.75586 28.1087,-2.124 36.95652,-3.04031 70.71626,-7.32361 79.62043,-8.59614 95.0867,-13.58919 11.28998,-3.64481 49.93137,-18.94322 60.29163,-23.8699 14.30037,-6.80036 27.54141,-18.88449 42.30256,-38.60644 9.46829,-12.6503 12.42791,-18.5302 11.31254,-22.47463 -0.88842,-3.14181 0.72737,-2.27426 -56.81951,-30.50783 -44.44631,-21.80618 -65.04746,-33.46103 -89.13044,-50.42442 -13.06604,-9.20338 -31.87552,-28.50378 -50.91638,-52.24529 -27.5413,-34.34048 -36.35058,-43.67014 -59.08362,-62.57378 -25.8188,-21.46962 -50.05973,-31.89495 -96.08695,-41.32426 -7.17392,-1.46968 -13.70929,-2.87724 -14.52306,-3.12792 -1.54245,-0.47515 -19.09415,-19.60808 -34.32201,-37.41408 -4.86479,-5.68841 -12.63808,-14.64692 -17.274,-19.90779 -4.63592,-5.26087 -13.37303,-15.61363 -19.4158,-23.00614 C 310.43525,156.57911 272.11177,122.6429 238.45577,101.8395 222.22819,91.808931 211.55881,87.548204 199.10493,86.125072 c -4.45178,-0.508715 -5.45795,-0.359975 -6.66806,0.985731 -2.17346,2.416991 -7.20943,13.987287 -12.80109,29.410937 -9.01488,24.86602 -11.23698,35.86729 -13.52423,66.95652 -0.73891,10.04348 -2.11839,24.91304 -3.06552,33.04348 -2.57488,22.10348 -3.48081,35.60287 -3.48081,51.86819 v 14.65911 l 5.57871,23.25809 c 3.06829,12.79195 7.03241,29.12765 8.80917,36.30157 l 3.23045,13.04347 -8.07529,13.47761 c -12.89497,21.52161 -24.25959,44.73225 -41.37018,84.49279 -8.12713,18.88533 -11.02843,27.92643 -16.32221,50.86377 -7.02854,30.45387 -7.58636,35.46803 -10.19042,91.60062 -1.13938,24.56035 0.0496,62.07314 2.19219,69.16555 1.41463,4.68265 4.52832,8.28079 8.75627,10.11866 3.29614,1.4328 85.24536,2.2254 214.34861,2.07312 l 90.00078,-0.10616 z"
     id="path29" />
</svg>
