<svg width="852" height="320" viewBox="0 0 852 320" fill="none" xmlns="http://www.w3.org/2000/svg">
<path fill-rule="evenodd" clip-rule="evenodd" d="M9.2698 99H294.723L312.234 215.273C312.723 222.597 310.021 229.993 304.839 235.184L265.514 274.935C260.741 279.717 254.27 283.273 247.514 283.273H182.786C168.723 283.273 152.981 270.126 152.981 256.073V255.61C152.981 250.056 156.895 244.851 160.088 240.605L160.088 240.605L160.288 240.339L75.9944 236.224C73.9944 236.135 69.0077 236.055 62.9899 235.984C43.5233 235.762 27.1144 221.37 24.4033 202.09L8.74995 103.006C8.84707 101.648 9.02179 100.311 9.2698 99ZM84.5458 137.592L139.983 152.446C139.994 152.788 140 153.132 140 153.477C140 170.045 126.568 183.477 110 183.477C93.4314 183.477 80 170.045 80 153.477C80 147.643 81.665 142.198 84.5458 137.592ZM180.019 152.4L235.429 137.553C238.325 142.168 240 147.627 240 153.477C240 170.045 226.568 183.477 210 183.477C193.431 183.477 180 170.045 180 153.477C180 153.116 180.006 152.757 180.019 152.4Z" fill="white"/>
<path fill-rule="evenodd" clip-rule="evenodd" d="M288.328 82.0258C288.569 83.4188 289.198 84.7073 290.018 85.8593C292.71 89.6425 294.372 94.0776 294.688 98.766L295.899 106.809C296.628 111.647 292.881 116 287.988 116H17.6382C13.7018 116 10.3504 113.136 9.73616 109.248L8.89297 103.911C8.79797 103.31 8.76814 102.697 8.8274 102.091C10.4271 85.7347 23.3039 72.6711 39.7278 70.9082L87.1856 63.328C89.9771 62.8821 92.7967 63.9426 94.6025 66.1175L105.915 79.7431C107.719 81.9152 110.533 82.9759 113.322 82.5343L203.656 68.2267C205.851 67.8792 207.802 66.6347 209.042 64.7913L222.878 44.2296C224.116 42.3892 226.063 41.1457 228.253 40.7958L247.639 37.6994C265.683 35.7705 282.181 48.0371 285.523 65.8683L288.328 82.0258Z" fill="white"/>
<path d="M400.8 156V76H425.244C431.052 76 436 77.1556 440.089 79.4667C444.237 81.7778 447.407 84.8593 449.6 88.7111C451.793 92.5037 452.889 96.6815 452.889 101.244C452.889 105.393 451.97 109.156 450.133 112.533C448.356 115.911 445.807 118.696 442.489 120.889L463.644 156H446.133L428.356 125.6H416.267V156H400.8ZM416.267 112.267H424.889C427.793 112.267 430.163 111.733 432 110.667C433.837 109.541 435.2 108.148 436.089 106.489C436.978 104.77 437.422 103.022 437.422 101.244C437.422 98.1037 436.267 95.5259 433.956 93.5111C431.644 91.437 428.622 90.4 424.889 90.4H416.267V112.267ZM493.136 157.778C487.151 157.778 481.877 156.533 477.314 154.044C472.751 151.556 469.195 148.148 466.647 143.822C464.099 139.437 462.825 134.43 462.825 128.8C462.825 123.407 464.069 118.637 466.558 114.489C469.047 110.281 472.395 106.963 476.603 104.533C480.869 102.104 485.581 100.889 490.736 100.889C496.01 100.889 500.721 102.104 504.869 104.533C509.018 106.904 512.277 110.163 514.647 114.311C517.077 118.459 518.292 123.17 518.292 128.444V133.867H485.758C484.277 133.867 482.855 133.778 481.492 133.6C480.129 133.422 478.766 133.215 477.403 132.978C478.114 136.533 479.862 139.437 482.647 141.689C485.492 143.881 489.106 144.978 493.492 144.978C496.869 144.978 499.892 144.296 502.558 142.933C505.284 141.57 507.506 139.881 509.225 137.867L512.603 151.733C509.936 153.748 506.914 155.259 503.536 156.267C500.218 157.274 496.751 157.778 493.136 157.778ZM477.047 123.644C480.01 122.993 482.914 122.667 485.758 122.667H495.181C496.84 122.667 498.41 122.726 499.892 122.844C501.373 122.963 502.766 123.17 504.069 123.467C503.181 120.267 501.551 117.748 499.181 115.911C496.869 114.074 493.995 113.156 490.558 113.156C487.299 113.156 484.455 114.104 482.025 116C479.655 117.837 477.995 120.385 477.047 123.644ZM549.028 158.667L519.783 102.667H536.939L545.294 119.822C546.065 121.304 546.776 122.785 547.428 124.267C548.08 125.689 548.731 127.319 549.383 129.156C550.035 127.319 550.687 125.689 551.339 124.267C551.991 122.785 552.702 121.304 553.472 119.822L561.828 102.667H578.272L549.028 158.667ZM609.636 157.778C603.651 157.778 598.377 156.533 593.814 154.044C589.251 151.556 585.695 148.148 583.147 143.822C580.599 139.437 579.325 134.43 579.325 128.8C579.325 123.407 580.569 118.637 583.058 114.489C585.547 110.281 588.895 106.963 593.103 104.533C597.369 102.104 602.081 100.889 607.236 100.889C612.51 100.889 617.221 102.104 621.369 104.533C625.518 106.904 628.777 110.163 631.147 114.311C633.577 118.459 634.792 123.17 634.792 128.444V133.867H602.258C600.777 133.867 599.355 133.778 597.992 133.6C596.629 133.422 595.266 133.215 593.903 132.978C594.614 136.533 596.362 139.437 599.147 141.689C601.992 143.881 605.606 144.978 609.992 144.978C613.369 144.978 616.392 144.296 619.058 142.933C621.784 141.57 624.006 139.881 625.725 137.867L629.103 151.733C626.436 153.748 623.414 155.259 620.036 156.267C616.718 157.274 613.251 157.778 609.636 157.778ZM593.547 123.644C596.51 122.993 599.414 122.667 602.258 122.667H611.681C613.34 122.667 614.91 122.726 616.392 122.844C617.873 122.963 619.266 123.17 620.569 123.467C619.681 120.267 618.051 117.748 615.681 115.911C613.369 114.074 610.495 113.156 607.058 113.156C603.799 113.156 600.955 114.104 598.525 116C596.155 117.837 594.495 120.385 593.547 123.644ZM643.367 156V102.667H657.233V108.533C659.13 106.044 661.47 104.148 664.256 102.844C667.041 101.541 670.033 100.889 673.233 100.889C677.026 100.889 680.552 101.807 683.811 103.644C687.13 105.422 689.796 108.059 691.811 111.556C693.885 114.993 694.922 119.17 694.922 124.089V156H679.456V126.133C679.456 123.17 678.567 120.533 676.789 118.222C675.011 115.911 672.463 114.756 669.144 114.756C666.478 114.756 664.078 115.674 661.944 117.511C659.87 119.289 658.833 122.104 658.833 125.956V156H643.367ZM728.906 184.444C724.757 184.444 720.787 183.822 716.994 182.578C713.261 181.393 710.031 179.763 707.306 177.689L711.039 162.4C712.935 164.948 715.424 167.022 718.506 168.622C721.587 170.281 725.054 171.111 728.906 171.111C734.357 171.111 738.594 169.541 741.617 166.4C744.639 163.319 746.15 159.348 746.15 154.489V150.756C744.135 152.83 741.706 154.459 738.861 155.644C736.076 156.83 732.994 157.422 729.617 157.422C724.698 157.422 720.224 156.148 716.194 153.6C712.165 151.052 708.935 147.674 706.506 143.467C704.135 139.2 702.95 134.489 702.95 129.333C702.95 124.178 704.135 119.467 706.506 115.2C708.935 110.933 712.165 107.556 716.194 105.067C720.224 102.519 724.698 101.244 729.617 101.244C733.054 101.244 736.194 101.867 739.039 103.111C741.883 104.296 744.313 105.956 746.328 108.089V102.667H759.661V156.711C759.661 162.519 758.239 167.496 755.394 171.644C752.55 175.793 748.787 178.963 744.106 181.156C739.424 183.348 734.357 184.444 728.906 184.444ZM731.483 143.822C734.091 143.822 736.461 143.17 738.594 141.867C740.728 140.563 742.417 138.815 743.661 136.622C744.965 134.43 745.617 132 745.617 129.333C745.617 126.667 744.965 124.237 743.661 122.044C742.417 119.852 740.728 118.104 738.594 116.8C736.461 115.496 734.091 114.844 731.483 114.844C728.876 114.844 726.506 115.496 724.372 116.8C722.239 118.104 720.52 119.852 719.217 122.044C717.972 124.237 717.35 126.667 717.35 129.333C717.35 132 717.972 134.43 719.217 136.622C720.52 138.815 722.239 140.563 724.372 141.867C726.506 143.17 728.876 143.822 731.483 143.822ZM799.011 157.778C793.026 157.778 787.752 156.533 783.189 154.044C778.626 151.556 775.07 148.148 772.522 143.822C769.974 139.437 768.7 134.43 768.7 128.8C768.7 123.407 769.944 118.637 772.433 114.489C774.922 110.281 778.27 106.963 782.478 104.533C786.744 102.104 791.456 100.889 796.611 100.889C801.885 100.889 806.596 102.104 810.744 104.533C814.893 106.904 818.152 110.163 820.522 114.311C822.952 118.459 824.167 123.17 824.167 128.444V133.867H791.633C790.152 133.867 788.73 133.778 787.367 133.6C786.004 133.422 784.641 133.215 783.278 132.978C783.989 136.533 785.737 139.437 788.522 141.689C791.367 143.881 794.981 144.978 799.367 144.978C802.744 144.978 805.767 144.296 808.433 142.933C811.159 141.57 813.381 139.881 815.1 137.867L818.478 151.733C815.811 153.748 812.789 155.259 809.411 156.267C806.093 157.274 802.626 157.778 799.011 157.778ZM782.922 123.644C785.885 122.993 788.789 122.667 791.633 122.667H801.056C802.715 122.667 804.285 122.726 805.767 122.844C807.248 122.963 808.641 123.17 809.944 123.467C809.056 120.267 807.426 117.748 805.056 115.911C802.744 114.074 799.87 113.156 796.433 113.156C793.174 113.156 790.33 114.104 787.9 116C785.53 117.837 783.87 120.385 782.922 123.644Z" fill="white"/>
<path d="M396.933 244V204H410.267C413.674 204 416.696 204.563 419.333 205.689C422 206.785 424.252 208.281 426.089 210.178C427.926 212.044 429.319 214.178 430.267 216.578C431.215 218.978 431.689 221.452 431.689 224C431.689 226.548 431.215 229.022 430.267 231.422C429.319 233.822 427.926 235.97 426.089 237.867C424.252 239.733 422 241.23 419.333 242.356C416.696 243.452 413.674 244 410.267 244H396.933ZM403.333 238.133H409.644C412.311 238.133 414.593 237.733 416.489 236.933C418.415 236.104 420 235.007 421.244 233.644C422.489 232.281 423.407 230.77 424 229.111C424.593 227.422 424.889 225.719 424.889 224C424.889 222.281 424.593 220.593 424 218.933C423.407 217.244 422.489 215.719 421.244 214.356C420 212.993 418.415 211.911 416.489 211.111C414.593 210.281 412.311 209.867 409.644 209.867H403.333V238.133ZM437.894 244V217.333H444.161V244H437.894ZM441.05 213.022C440.013 213.022 439.139 212.667 438.428 211.956C437.717 211.215 437.361 210.341 437.361 209.333C437.361 208.267 437.717 207.393 438.428 206.711C439.169 206 440.043 205.644 441.05 205.644C442.117 205.644 442.991 206 443.672 206.711C444.383 207.422 444.739 208.296 444.739 209.333C444.739 210.37 444.383 211.244 443.672 211.956C442.961 212.667 442.087 213.022 441.05 213.022ZM459.235 244.711C457.635 244.711 455.975 244.444 454.257 243.911C452.568 243.348 451.19 242.504 450.124 241.378L451.724 235.111C452.583 236.385 453.724 237.452 455.146 238.311C456.568 239.17 458.05 239.6 459.59 239.6C460.864 239.6 461.798 239.319 462.39 238.756C462.983 238.193 463.279 237.511 463.279 236.711C463.279 235.822 462.968 235.17 462.346 234.756C461.724 234.311 461.131 233.985 460.568 233.778L456.879 232.4C456.138 232.104 455.264 231.689 454.257 231.156C453.279 230.593 452.42 229.807 451.679 228.8C450.938 227.793 450.568 226.474 450.568 224.844C450.568 223.363 450.924 222 451.635 220.756C452.375 219.511 453.427 218.519 454.79 217.778C456.153 217.007 457.783 216.622 459.679 216.622C461.309 216.622 462.894 216.904 464.435 217.467C466.005 218.03 467.235 218.785 468.124 219.733L466.568 225.911C465.709 224.607 464.627 223.585 463.324 222.844C462.05 222.104 460.775 221.733 459.501 221.733C458.405 221.733 457.575 222 457.012 222.533C456.45 223.067 456.168 223.689 456.168 224.4C456.168 224.933 456.361 225.437 456.746 225.911C457.131 226.356 457.753 226.741 458.613 227.067L462.124 228.4C462.953 228.696 463.887 229.126 464.924 229.689C465.99 230.252 466.909 231.052 467.679 232.089C468.45 233.126 468.835 234.533 468.835 236.311C468.835 238.8 467.931 240.83 466.124 242.4C464.346 243.941 462.05 244.711 459.235 244.711ZM487.204 244.711C484.567 244.711 482.167 244.089 480.004 242.844C477.841 241.57 476.123 239.867 474.849 237.733C473.575 235.6 472.938 233.244 472.938 230.667C472.938 228.059 473.575 225.704 474.849 223.6C476.123 221.467 477.841 219.778 480.004 218.533C482.167 217.259 484.567 216.622 487.204 216.622C489.071 216.622 490.834 216.948 492.493 217.6C494.182 218.222 495.663 219.111 496.938 220.267L495.204 227.244C494.463 225.911 493.412 224.77 492.049 223.822C490.686 222.844 489.115 222.356 487.337 222.356C485.797 222.356 484.389 222.741 483.115 223.511C481.871 224.252 480.878 225.244 480.137 226.489C479.426 227.733 479.071 229.126 479.071 230.667C479.071 232.178 479.426 233.57 480.137 234.844C480.878 236.089 481.871 237.096 483.115 237.867C484.389 238.607 485.797 238.978 487.337 238.978C489.115 238.978 490.686 238.504 492.049 237.556C493.412 236.607 494.463 235.452 495.204 234.089L496.938 241.067C495.663 242.222 494.182 243.126 492.493 243.778C490.834 244.4 489.071 244.711 487.204 244.711ZM514.472 244.711C511.865 244.711 509.48 244.089 507.317 242.844C505.154 241.57 503.435 239.867 502.161 237.733C500.887 235.6 500.25 233.244 500.25 230.667C500.25 228.059 500.887 225.704 502.161 223.6C503.435 221.467 505.154 219.778 507.317 218.533C509.48 217.259 511.865 216.622 514.472 216.622C517.109 216.622 519.494 217.259 521.628 218.533C523.791 219.778 525.509 221.467 526.783 223.6C528.057 225.704 528.694 228.059 528.694 230.667C528.694 233.244 528.057 235.6 526.783 237.733C525.509 239.867 523.791 241.57 521.628 242.844C519.494 244.089 517.109 244.711 514.472 244.711ZM514.472 238.978C515.983 238.978 517.361 238.607 518.606 237.867C519.85 237.096 520.828 236.089 521.539 234.844C522.28 233.6 522.65 232.207 522.65 230.667C522.65 229.126 522.28 227.733 521.539 226.489C520.828 225.244 519.85 224.252 518.606 223.511C517.361 222.741 515.983 222.356 514.472 222.356C512.961 222.356 511.583 222.741 510.339 223.511C509.094 224.252 508.102 225.244 507.361 226.489C506.65 227.733 506.294 229.126 506.294 230.667C506.294 232.207 506.65 233.6 507.361 234.844C508.102 236.089 509.08 237.096 510.294 237.867C511.539 238.607 512.931 238.978 514.472 238.978ZM534.288 244V217.333H539.976V222.044C540.925 220.504 542.139 219.289 543.621 218.4C545.102 217.511 546.865 217.067 548.91 217.067L550.332 222.889C549.769 222.711 549.132 222.622 548.421 222.622C546.05 222.622 544.139 223.378 542.688 224.889C541.265 226.4 540.554 228.563 540.554 231.378V244H534.288ZM565.396 244.533C562.937 244.533 560.7 243.911 558.685 242.667C556.67 241.422 555.055 239.748 553.84 237.644C552.655 235.541 552.062 233.215 552.062 230.667C552.062 228.119 552.655 225.793 553.84 223.689C555.055 221.585 556.67 219.911 558.685 218.667C560.7 217.422 562.937 216.8 565.396 216.8C566.966 216.8 568.433 217.067 569.796 217.6C571.188 218.104 572.433 218.815 573.529 219.733V201.333H579.796V244H574.24V240.933C573.144 242.059 571.825 242.948 570.285 243.6C568.774 244.222 567.144 244.533 565.396 244.533ZM566.151 238.933C567.633 238.933 568.981 238.563 570.196 237.822C571.44 237.081 572.418 236.089 573.129 234.844C573.87 233.6 574.24 232.207 574.24 230.667C574.24 229.156 573.87 227.778 573.129 226.533C572.418 225.259 571.455 224.252 570.24 223.511C569.025 222.77 567.663 222.4 566.151 222.4C564.67 222.4 563.307 222.77 562.062 223.511C560.848 224.252 559.87 225.244 559.129 226.489C558.418 227.733 558.062 229.126 558.062 230.667C558.062 232.178 558.418 233.57 559.129 234.844C559.87 236.089 560.848 237.081 562.062 237.822C563.277 238.563 564.64 238.933 566.151 238.933ZM583.197 250.667C584.501 248.919 585.568 246.889 586.397 244.578C587.227 242.296 587.642 239.659 587.642 236.667H593.775C593.775 239.304 593.434 241.793 592.753 244.133C592.071 246.504 591.079 248.681 589.775 250.667H583.197ZM611.836 257.333L620.592 239.778L609.525 217.333H616.503L621.703 228C622.177 228.948 622.606 229.867 622.992 230.756C623.377 231.615 623.747 232.563 624.103 233.6C624.458 232.563 624.829 231.615 625.214 230.756C625.629 229.867 626.073 228.948 626.547 228L631.836 217.333H638.503L618.592 257.333H611.836ZM653.785 244.711C651.177 244.711 648.792 244.089 646.629 242.844C644.466 241.57 642.748 239.867 641.474 237.733C640.2 235.6 639.562 233.244 639.562 230.667C639.562 228.059 640.2 225.704 641.474 223.6C642.748 221.467 644.466 219.778 646.629 218.533C648.792 217.259 651.177 216.622 653.785 216.622C656.422 216.622 658.807 217.259 660.94 218.533C663.103 219.778 664.822 221.467 666.096 223.6C667.37 225.704 668.007 228.059 668.007 230.667C668.007 233.244 667.37 235.6 666.096 237.733C664.822 239.867 663.103 241.57 660.94 242.844C658.807 244.089 656.422 244.711 653.785 244.711ZM653.785 238.978C655.296 238.978 656.674 238.607 657.918 237.867C659.163 237.096 660.14 236.089 660.851 234.844C661.592 233.6 661.963 232.207 661.963 230.667C661.963 229.126 661.592 227.733 660.851 226.489C660.14 225.244 659.163 224.252 657.918 223.511C656.674 222.741 655.296 222.356 653.785 222.356C652.274 222.356 650.896 222.741 649.651 223.511C648.407 224.252 647.414 225.244 646.674 226.489C645.963 227.733 645.607 229.126 645.607 230.667C645.607 232.207 645.963 233.6 646.674 234.844C647.414 236.089 648.392 237.096 649.607 237.867C650.851 238.607 652.244 238.978 653.785 238.978ZM683.822 244.711C681.956 244.711 680.207 244.252 678.578 243.333C676.948 242.415 675.615 241.081 674.578 239.333C673.57 237.585 673.067 235.467 673.067 232.978V217.333H679.333V232.133C679.333 233.941 679.867 235.541 680.933 236.933C682.03 238.296 683.556 238.978 685.511 238.978C687.111 238.978 688.533 238.4 689.778 237.244C691.052 236.089 691.689 234.43 691.689 232.267V217.333H697.956V244H692.222V240.444C691.244 241.837 690.015 242.904 688.533 243.644C687.081 244.356 685.511 244.711 683.822 244.711ZM705.163 244V217.333H710.851V222.044C711.8 220.504 713.014 219.289 714.496 218.4C715.977 217.511 717.74 217.067 719.785 217.067L721.207 222.889C720.644 222.711 720.007 222.622 719.296 222.622C716.925 222.622 715.014 223.378 713.562 224.889C712.14 226.4 711.429 228.563 711.429 231.378V244H705.163ZM748.903 245.333L735.525 217.333H742.414L747.169 227.378C747.614 228.296 748.044 229.244 748.458 230.222C748.873 231.17 749.288 232.311 749.703 233.644C750.147 232.341 750.592 231.23 751.036 230.311C751.481 229.393 751.91 228.474 752.325 227.556L757.525 216.267L762.769 227.556C763.184 228.444 763.599 229.348 764.014 230.267C764.458 231.185 764.888 232.311 765.303 233.644C765.718 232.252 766.132 231.096 766.547 230.178C766.992 229.23 767.421 228.296 767.836 227.378L772.636 217.333H779.169L765.792 245.333L760.014 234.267C759.54 233.348 759.081 232.43 758.636 231.511C758.221 230.563 757.792 229.496 757.347 228.311C756.932 229.496 756.503 230.563 756.058 231.511C755.614 232.43 755.14 233.348 754.636 234.267L748.903 245.333ZM793.539 244.533C791.109 244.533 788.887 243.911 786.872 242.667C784.857 241.422 783.243 239.748 782.028 237.644C780.843 235.541 780.25 233.215 780.25 230.667C780.25 228.119 780.843 225.793 782.028 223.689C783.243 221.585 784.857 219.911 786.872 218.667C788.887 217.422 791.109 216.8 793.539 216.8C795.317 216.8 796.961 217.126 798.472 217.778C800.013 218.4 801.331 219.289 802.428 220.444V217.333H807.983V244H802.428V240.889C801.331 242.015 800.013 242.904 798.472 243.556C796.961 244.207 795.317 244.533 793.539 244.533ZM794.339 238.933C795.82 238.933 797.169 238.563 798.383 237.822C799.628 237.081 800.606 236.089 801.317 234.844C802.057 233.6 802.428 232.207 802.428 230.667C802.428 229.156 802.057 227.778 801.317 226.533C800.606 225.259 799.643 224.252 798.428 223.511C797.213 222.77 795.85 222.4 794.339 222.4C792.857 222.4 791.494 222.77 790.25 223.511C789.035 224.252 788.057 225.244 787.317 226.489C786.606 227.733 786.25 229.126 786.25 230.667C786.25 232.178 786.606 233.57 787.317 234.844C788.057 236.089 789.035 237.081 790.25 237.822C791.465 238.563 792.828 238.933 794.339 238.933ZM814.274 257.333L823.029 239.778L811.963 217.333H818.94L824.14 228C824.614 228.948 825.044 229.867 825.429 230.756C825.814 231.615 826.185 232.563 826.54 233.6C826.896 232.563 827.266 231.615 827.651 230.756C828.066 229.867 828.511 228.948 828.985 228L834.274 217.333H840.94L821.029 257.333H814.274ZM844.936 244.711C843.781 244.711 842.803 244.311 842.003 243.511C841.203 242.711 840.803 241.733 840.803 240.578C840.803 239.393 841.203 238.415 842.003 237.644C842.803 236.844 843.781 236.444 844.936 236.444C846.151 236.444 847.144 236.844 847.914 237.644C848.714 238.444 849.114 239.422 849.114 240.578C849.114 241.733 848.714 242.711 847.914 243.511C847.144 244.311 846.151 244.711 844.936 244.711Z" fill="white"/>
</svg>
